<svg viewBox="0 0 171 68" fill="none" xmlns="http://www.w3.org/2000/svg">
<path d="M107.205 66.286L105.582 64.6075L105.587 63.1024C105.59 62.2746 105.708 61.1288 105.85 60.5557C106.032 59.8168 106.026 59.0087 105.83 57.7771C105.66 56.7074 105.536 51.6421 105.506 44.5838L105.458 33.1271L104.514 32.9823C103.82 32.8761 103.243 32.5296 102.335 31.6728C101.656 31.0322 101.171 30.3989 101.259 30.2655C101.365 30.1032 104.885 30.0176 111.913 30.0066L122.41 29.9901L123.721 31.2427C124.445 31.9344 124.958 32.6091 124.866 32.7495C124.771 32.894 123.972 33.0036 123.01 33.0036C122.081 33.0036 121.255 33.1046 121.174 33.2275C121.093 33.3508 121.031 38.2356 121.036 44.0823C121.044 52.9632 120.984 54.8754 120.676 55.6992C120.411 56.4083 120.381 56.7689 120.57 56.9834C120.714 57.1475 120.798 57.68 120.756 58.1665C120.68 59.0322 120.656 59.0521 119.607 59.1231C119.018 59.1633 118.366 59.1342 118.158 59.0593C117.839 58.9439 117.863 58.8416 118.309 58.3931C118.6 58.1018 118.837 57.7918 118.837 57.7046C118.837 57.3577 118.249 57.5771 117.711 58.1247C117.398 58.4431 116.922 58.7036 116.654 58.7036C116.385 58.7036 116.098 58.8076 116.014 58.9351C115.931 59.0623 115.227 59.1666 114.451 59.1666C113.11 59.1666 112.972 59.11 111.721 58.0534C110.889 57.3502 110.471 56.8369 110.587 56.6594C110.719 56.4587 111.622 56.3965 113.761 56.4413L116.75 56.5038L116.873 53.1466C116.941 51.3001 116.941 46.0386 116.873 41.4545L116.75 33.1193L113.333 33.0546C111.454 33.0189 109.825 33.0758 109.714 33.1808C109.603 33.2857 109.508 41.1551 109.504 50.6682C109.497 65.1175 109.442 67.9647 109.162 67.9647C108.978 67.9647 108.097 67.2092 107.205 66.286ZM97.7536 59.0803C97.4314 58.9367 96.3892 58.5065 95.4381 58.1247L93.7086 57.4299L93.0208 54.6518C91.3231 47.7919 91.0139 46.6421 90.8416 46.5418C90.7406 46.4829 89.9947 46.8769 89.1838 47.4176C88.3726 47.958 86.5361 49.1732 85.1019 50.118C83.203 51.3691 82.458 51.9981 82.3597 52.4333C81.7107 55.3043 80.7415 58.6147 80.4768 58.8645C80.2074 59.1185 80.0092 59.0315 79.3151 58.3561L78.478 57.5418L78.7716 56.3282C78.9329 55.6606 79.4521 53.8122 79.9248 52.2204C81.3097 47.5578 82.4924 43.2519 83.1047 40.6441C83.4188 39.307 83.9766 37.145 84.3445 35.8399C84.7128 34.5349 84.95 33.3109 84.8725 33.1196C84.7579 32.8381 84.1872 32.7721 81.8652 32.7721H78.9994L77.769 31.6116C77.0924 30.9734 76.5924 30.4007 76.6576 30.3389C76.7232 30.2771 81.5472 30.2052 87.3777 30.1791L97.9785 30.1317L99.3137 31.3755C100.048 32.0596 100.596 32.7002 100.531 32.7992C100.466 32.8983 98.5382 32.9241 96.2467 32.8564C92.6142 32.7495 92.0613 32.7803 91.9328 33.0961C91.8517 33.2955 92.1252 34.6846 92.5402 36.1829C94.1418 41.9613 95.1899 45.6539 95.4498 46.4323C95.5987 46.8778 96.1815 48.9097 96.7451 50.9471C97.3091 52.9844 98.0362 55.5328 98.3617 56.6097C99.2219 59.4559 99.1602 59.7063 97.7536 59.0803ZM87.1629 45.8395C88.7646 44.7493 90.1374 43.7041 90.2137 43.5164C90.29 43.3291 90.0897 42.1633 89.7685 40.9259C89.4473 39.6885 88.9453 37.6341 88.6526 36.3607C88.3599 35.0874 88.0277 33.9562 87.9138 33.847C87.588 33.5345 87.2175 34.4028 86.5322 37.0842C86.183 38.4511 85.7888 39.8372 85.6561 40.1645C85.462 40.6428 84.5811 44.032 83.8007 47.3006C83.7267 47.6108 83.7926 47.8214 83.9636 47.8214C84.1216 47.8214 85.5613 46.9295 87.1629 45.8395ZM145.227 58.6745C144.281 58.2943 143.258 57.887 142.951 57.769C142.645 57.6506 142.284 57.2783 142.148 56.9415C141.948 56.4466 140.431 50.3998 139.781 47.5121C139.487 46.2041 139.442 46.224 133.776 50.1951L131.162 52.0269L130.386 54.7286C129.369 58.2711 129.152 58.905 128.909 59.0466C128.797 59.1116 128.353 58.786 127.922 58.3228C126.99 57.3211 126.999 57.1697 128.307 52.3149C129.332 48.5121 130.146 46.8373 131.273 46.2096C132.108 45.7451 132.385 45.0432 131.735 45.0432C131.537 45.0432 131.152 45.27 130.878 45.5473C130.604 45.8245 130.309 45.984 130.222 45.9017C130.078 45.7663 131.593 39.9504 132.827 35.8985C133.099 35.0073 133.321 33.9915 133.321 33.6411V33.0036H127.695L126.35 31.6838C125.611 30.958 125.059 30.2834 125.124 30.1848C125.285 29.9388 145.635 29.9543 146.05 30.2009C146.324 30.3635 146.307 30.5075 145.956 31.0137C145.721 31.352 145.571 31.6684 145.623 31.7167C145.675 31.765 146.157 31.6616 146.694 31.4871C147.603 31.1918 147.709 31.2041 148.228 31.6639C149.403 32.7044 148.584 33.0905 145.47 32.965C144.526 32.9267 143.014 32.9199 142.111 32.9496L140.468 33.0036L140.752 36.1927L139.562 37.2683C137.761 38.895 137.739 38.8738 136.812 34.6241C136.554 33.4456 135.952 33.5688 135.681 34.8559C134.916 38.4815 133.809 42.0299 133.109 43.1038C132.243 44.4305 132.159 44.8117 132.733 44.8117C132.967 44.8117 133.075 44.9412 132.998 45.1291C132.663 45.9549 132.54 47.5899 132.814 47.5899C132.971 47.5899 134.374 46.6869 135.932 45.5832C138.655 43.6541 138.759 43.5488 138.62 42.8626C138.541 42.4703 138.414 41.5238 138.34 40.7598L138.203 39.3707L139.462 38.1552C140.154 37.4867 140.873 36.9397 141.061 36.9397C141.257 36.9397 141.518 37.3601 141.673 37.9234C141.822 38.4648 142.27 40.0321 142.669 41.4065C143.067 42.7808 143.827 45.4897 144.357 47.4261C144.886 49.3628 145.823 52.6935 146.439 54.8276C147.055 56.9618 147.559 58.8635 147.559 59.0531C147.559 59.5285 147.21 59.4716 145.227 58.6745ZM155.074 57.1406C153.113 55.899 151.454 54.7574 151.387 54.6034C151.267 54.3301 153.601 51.526 153.949 51.526C154.045 51.526 155.271 52.3087 156.672 53.2653C158.073 54.2219 159.355 54.9774 159.522 54.9437C159.931 54.862 164.769 49.2075 164.622 48.9832C164.558 48.8855 162.653 47.5742 160.39 46.069C158.126 44.5639 155.279 42.6628 154.064 41.8449C152.849 41.0269 151.717 40.3067 151.548 40.2446C150.918 40.0125 151.308 39.4028 153.941 36.4971C155.426 34.8582 156.641 33.4018 156.641 33.2605C156.641 33.0909 155.869 33.0036 154.362 33.0036H152.083L150.803 31.7807C150.099 31.1082 149.522 30.4256 149.522 30.2639C149.522 30.03 151.473 29.9865 159.075 30.0509L168.629 30.1318L169.772 31.331C170.898 32.5122 171.043 33.1575 170.122 32.8816C169.287 32.6318 168.654 33.0179 167.777 34.3109C166.797 35.7563 166.38 35.9943 165.757 35.4627C165.515 35.2564 165.139 35.0874 164.922 35.0874C164.704 35.0874 164.457 34.9828 164.373 34.8546C164.114 34.4584 161.353 32.7721 160.965 32.7721C160.762 32.7721 160.121 33.3105 159.539 33.969C158.958 34.6274 157.975 35.6951 157.356 36.3421C156.736 36.9891 156.162 37.6956 156.08 37.9123C155.961 38.2242 157.363 39.2334 162.791 42.7439C166.564 45.1847 169.652 47.2718 169.652 47.3823C169.652 47.5847 166.532 51.1504 162.749 55.2719C161.617 56.5044 160.327 57.937 159.88 58.4555C159.434 58.9737 158.972 59.398 158.854 59.398C158.736 59.398 157.035 58.3823 155.074 57.1406ZM69.084 57.4878L67.5817 56.0409L67.5924 53.3781C67.5982 51.9138 67.6975 50.6009 67.8127 50.4606C67.9315 50.3161 67.9045 49.8862 67.7511 49.4707C67.4042 48.5324 67.6612 47.1884 68.2154 47.041C69.2819 46.7575 70.686 46.6513 70.8125 46.8442C70.8891 46.9615 70.9715 49.235 70.9949 51.8964C71.0484 57.9269 71.0172 58.9348 70.7775 58.9348C70.6723 58.9348 69.9101 58.2839 69.084 57.4878ZM68.7592 51.7712C68.7592 51.6513 68.6489 51.4888 68.5139 51.4103C68.3789 51.3315 68.2683 51.4296 68.2683 51.628C68.2683 51.8265 68.3789 51.989 68.5139 51.989C68.6489 51.989 68.7592 51.8909 68.7592 51.7712ZM67.4331 45.8288C67.3523 45.6303 67.2864 41.3725 67.2864 36.3666C67.2864 28.2806 67.2429 27.2492 66.898 27.1243C66.6845 27.0471 65.6585 26.9838 64.6182 26.9838H62.7265L61.523 25.8314C60.8614 25.1977 60.4052 24.5986 60.51 24.5002C60.6145 24.4017 64.1393 24.3452 68.3429 24.3747L75.986 24.4283L77.2093 25.582C77.8819 26.2165 78.3663 26.7979 78.2859 26.874C78.2051 26.95 76.6982 27.0138 74.9366 27.0157C72.6637 27.0183 71.6594 27.1038 71.4774 27.3109C71.3109 27.5 71.1977 30.75 71.1558 36.5432C71.1156 42.1267 70.9991 45.5633 70.8459 45.6964C70.7109 45.8137 69.9208 45.9726 69.0898 46.0494C67.8568 46.1632 67.5528 46.123 67.4331 45.8288Z" fill="#FEFEFE"/>
<path d="M11.8914 65.857C11.5031 65.807 10.969 65.7632 10.7044 65.7596C10.0381 65.7501 9.71696 65.5569 10.117 65.4056C10.239 65.3595 10.3066 65.2516 10.3693 65.0038C10.4863 64.5408 10.6805 64.2505 11.0481 63.988C11.2649 63.8331 11.3955 63.6696 11.4814 63.446C11.6194 63.0867 11.96 62.6646 12.1118 62.6646C12.2708 62.6646 12.7113 62.9732 13.0528 63.3237C13.2979 63.5754 13.3484 63.665 13.2822 63.7311C13.137 63.8756 13.1875 63.9841 13.438 64.0661C13.7166 64.1577 13.821 64.3431 13.6598 64.4601C13.5224 64.5601 13.5172 64.8344 13.6508 64.9381C13.7359 65.0038 13.7162 65.0865 13.5232 65.4719L13.2949 65.9283L12.9461 65.9381C12.7542 65.9437 12.2796 65.9071 11.8914 65.857ZM13.3383 64.9106C13.3383 64.872 13.2748 64.8403 13.1971 64.8403C13.1195 64.8403 13.056 64.872 13.056 64.9106C13.056 64.9492 13.1195 64.9809 13.1971 64.9809C13.2748 64.9809 13.3383 64.9492 13.3383 64.9106ZM3.08293 65.0338C2.81672 64.8468 2.7037 64.7288 2.7589 64.6948C2.80552 64.6661 2.88602 64.6589 2.93779 64.6788C2.98956 64.6984 2.92891 64.5542 2.80302 64.3578C2.64799 64.1162 2.52621 64.0008 2.42562 63.9998C2.21991 63.9975 1.8935 63.6846 1.94843 63.5424C2.01273 63.3757 2.19355 63.4424 2.32711 63.6823C2.5044 64.0004 2.64429 63.9553 2.64684 63.5794C2.6485 63.3368 2.60575 63.2171 2.45738 63.0491L2.26577 62.832L2.59193 62.257C2.77131 61.9405 2.93958 61.6819 2.96586 61.6819C2.99214 61.6819 3.0544 61.8794 3.10421 62.1206C3.15402 62.3619 3.23207 62.6064 3.27766 62.6646C3.4128 62.8363 3.52186 63.2979 3.46397 63.4535C3.4289 63.5476 3.46673 63.7346 3.57283 63.991C3.76252 64.4496 3.78228 64.8338 3.63108 65.1247C3.57186 65.2385 3.51628 65.3291 3.50758 65.3261C3.49885 65.3228 3.30777 65.1914 3.08293 65.0338ZM5.12926 64.8929C4.62648 64.2744 4.61444 64.1083 5.0399 63.6608C5.33267 63.3525 5.37417 63.3322 5.68528 63.344C5.86813 63.3508 6.05707 63.3983 6.10516 63.4492C6.21087 63.5614 6.49165 64.3064 6.49145 64.4745C6.49139 64.5405 6.3564 64.6782 6.19147 64.7798C5.87348 64.976 5.46256 65.1914 5.40575 65.1914C5.38702 65.1914 5.26259 65.0571 5.12926 64.8929ZM4.26478 62.7594C4.16958 62.6574 4.09171 62.5214 4.09171 62.457C4.09171 62.393 4.04508 62.2792 3.98807 62.204C3.86048 62.0363 3.84695 61.6819 3.96818 61.6822C4.14323 61.6826 4.51217 61.9618 4.54474 62.1183C4.56308 62.2063 4.59767 62.4286 4.62155 62.612C4.65776 62.8892 4.64598 62.9451 4.55146 62.9451C4.489 62.9451 4.35999 62.8618 4.26478 62.7594ZM21.1085 62.2609C20.8686 61.3605 20.8687 61.3592 21.1445 61.0928C21.4388 60.8087 21.5373 60.8211 21.8542 61.1824L22.0763 61.4361L21.8928 61.7519C21.6389 62.189 21.3661 62.5241 21.2642 62.5241C21.2172 62.5241 21.1471 62.4057 21.1085 62.2609ZM23.432 61.3893C22.96 61.0755 22.8705 61.0408 22.6063 61.0699C22.3285 61.1003 22.3055 61.0892 22.2358 60.8904C22.1082 60.5262 22.1422 60.4344 22.4614 60.2801C22.6264 60.2006 22.8885 60.0574 23.0438 59.9623C23.2386 59.8426 23.4299 59.7887 23.6608 59.788C23.92 59.7871 24.0155 59.7547 24.0843 59.6442C24.2028 59.4542 25.3545 58.8988 25.836 58.7994C26.2297 58.718 26.5377 58.5683 26.5377 58.4581C26.5377 58.4241 26.4266 58.2639 26.2907 58.1024C26.1549 57.9406 25.9977 57.6454 25.9414 57.4463C25.8851 57.2472 25.7875 56.9029 25.7246 56.681C25.6616 56.459 25.5856 56.2772 25.5557 56.2772C25.5258 56.2772 25.4633 56.4034 25.4169 56.5574C25.3705 56.7114 25.236 57.0507 25.1179 57.3119L24.9032 57.7863L24.7676 57.6205C24.693 57.5297 24.6319 57.411 24.6319 57.3574C24.6319 57.3037 24.6062 57.2599 24.5747 57.2599C24.5433 57.2599 24.414 57.1593 24.2874 57.0363C24.0603 56.8153 24.0528 56.8137 23.7269 56.9C23.5453 56.9484 23.3306 57.0497 23.2498 57.1249C23.1098 57.2557 23.0979 57.2563 22.9963 57.1383C22.9377 57.07 22.7655 56.8091 22.6138 56.558L22.3379 56.102L22.3209 56.4528C22.3115 56.6456 22.2862 56.9631 22.2647 57.1579L22.2255 57.512L21.5483 57.529C21.1759 57.5385 20.8081 57.58 20.731 57.6209C20.5296 57.7281 19.3263 58.0995 19.1757 58.1011C19.1059 58.1018 18.9572 58.055 18.8453 57.9975C18.6478 57.8961 18.6269 57.903 18.1153 58.2433C17.8257 58.4359 17.5478 58.5935 17.4978 58.5935C17.4479 58.5935 17.3095 58.4885 17.1902 58.36C17.071 58.2316 16.9236 58.0975 16.8627 58.0619C16.7093 57.972 16.3029 57.3649 16.3029 57.2256C16.3029 57.1625 16.4563 56.9471 16.6438 56.747C16.8313 56.5466 17.0381 56.3037 17.1032 56.2072C17.2592 55.9761 18.4201 54.8113 18.5819 54.7237C18.751 54.6318 18.9127 54.6916 19.2786 54.9806C19.4472 55.114 19.6428 55.2235 19.7133 55.2239C19.7839 55.2242 19.9429 55.3013 20.0668 55.3952C20.554 55.7649 21.0283 55.9248 21.6379 55.9258C21.9518 55.9261 22.2295 55.9473 22.2551 55.9728C22.3838 56.1007 25.531 56.1232 26.1848 56.001C26.4371 55.9539 26.799 55.8941 26.989 55.8682C27.3789 55.8149 27.3889 55.8022 27.5713 55.1209L27.7024 54.6315L28.1612 54.3667C28.4135 54.2212 28.6517 54.062 28.6906 54.0129C28.7294 53.9639 28.8961 53.8191 29.0611 53.6909C29.3621 53.4572 29.4311 53.2672 29.2935 53.0508C29.2542 52.9893 29.2537 52.9174 29.2921 52.8713C29.3309 52.8249 29.3243 52.6853 29.2753 52.5179C29.175 52.1753 29.0947 52.0645 28.9791 52.1083C28.842 52.1609 28.6835 51.9399 28.7854 51.8382C28.8303 51.7938 28.8671 51.6388 28.8671 51.4947C28.8671 51.19 28.9468 51.1141 29.1407 51.2348C29.345 51.3613 29.8069 51.138 30.2612 50.6927C30.6859 50.2765 30.7365 50.0523 30.4553 49.8326C30.2966 49.7083 30.2788 49.6439 30.2788 49.1957C30.2788 48.7992 30.2571 48.6968 30.1729 48.6968C30.1083 48.6968 30.0671 48.6315 30.0671 48.5288C30.0671 48.3519 29.9319 48.2555 29.7987 48.3372C29.7552 48.364 29.6689 48.5069 29.6068 48.6543C29.5448 48.8021 29.4324 48.9388 29.357 48.9584C29.0915 49.0274 29.2241 49.1248 29.5553 49.1039L29.8906 49.0829L29.8845 49.3811C29.8796 49.6227 29.9024 49.6796 30.0039 49.6796C30.1936 49.6796 30.237 49.8123 30.0973 49.966C29.9738 50.1016 29.9712 50.1016 29.8159 49.9565C29.7297 49.8761 29.6402 49.7155 29.6169 49.5998C29.5923 49.4772 29.5436 49.4086 29.5001 49.4354C29.4592 49.4605 29.3822 49.4452 29.3291 49.4014C29.2628 49.3468 29.2183 49.3448 29.1869 49.3955C29.1617 49.4357 29.0477 49.469 28.9335 49.469C28.7623 49.469 28.726 49.4399 28.726 49.303C28.726 49.2118 28.6609 49.0548 28.5814 48.9541L28.4368 48.7714L28.6188 48.7259C28.759 48.691 28.7909 48.6494 28.7575 48.5448C28.7336 48.47 28.7642 48.3333 28.826 48.2398C28.8874 48.1463 28.937 47.9822 28.9361 47.8746L28.9345 47.6791L28.7972 47.8547C28.7217 47.9511 28.5874 48.195 28.4988 48.3967C28.4102 48.5981 28.2948 48.7799 28.2422 48.8008C28.0225 48.8874 27.1025 47.6464 27.1025 47.2633C27.1025 47.1198 27.4317 47.0711 28.2318 47.0966L28.9024 47.1175L28.9249 47.3516C28.9418 47.5265 28.9743 47.5748 29.0542 47.5444C29.1129 47.5219 29.1743 47.5036 29.1905 47.5036C29.2709 47.5036 29.2031 46.7503 29.1119 46.6304C29.0549 46.5555 29.0083 46.4365 29.0083 46.3662C29.0083 46.2959 28.9718 46.1805 28.9273 46.1096C28.8828 46.0386 28.8673 45.8981 28.8929 45.7967C28.9553 45.5492 29.4452 45.0471 29.624 45.0471C29.7029 45.0471 29.8074 44.999 29.8564 44.9405C29.9292 44.8532 29.9226 44.8087 29.8204 44.6966C29.7035 44.5681 29.703 44.5479 29.8123 44.3821C29.8766 44.2847 29.9601 44.2049 29.9981 44.2049C30.036 44.2049 30.067 44.1611 30.067 44.1078C30.067 44.0545 30.2096 43.8571 30.3839 43.6691C30.5582 43.4811 30.7011 43.2879 30.7015 43.2398C30.7021 43.1915 30.7779 43.1519 30.8704 43.1519C31.0517 43.1519 31.4082 42.7576 31.4082 42.5572C31.4082 42.4951 31.5352 42.3241 31.6905 42.1773C31.8828 41.9956 31.9728 41.8504 31.9728 41.7223C31.9728 41.5853 32.0217 41.5157 32.1523 41.4663C32.4199 41.3653 32.8077 41.0413 32.9702 40.783C33.0491 40.6575 33.1717 40.5548 33.2428 40.5548C33.4268 40.5548 33.9167 40.2201 34.0238 40.0213C34.1549 39.7774 34.2896 39.8091 34.2772 40.0811C34.2678 40.2877 34.2844 40.3077 34.4524 40.2903C34.5939 40.276 34.6481 40.3093 34.6809 40.4309C34.7594 40.7225 34.7273 40.8448 34.517 41.054C34.4005 41.1698 34.3256 41.3058 34.347 41.3617C34.3872 41.4663 34.0533 42.2107 33.9333 42.2846C33.8953 42.3078 33.8833 42.4202 33.9064 42.5347C33.9291 42.6488 33.9138 42.8057 33.872 42.8832C33.8171 42.9855 33.8191 43.0793 33.8794 43.2242C33.9258 43.335 33.9372 43.4654 33.9054 43.5161C33.8736 43.5668 33.8567 43.6766 33.8674 43.7603C33.8784 43.844 33.8418 43.9385 33.7866 43.9708C33.5978 44.0807 33.443 44.472 33.5267 44.628C33.6082 44.7793 33.5822 44.8562 33.3687 45.0922C33.2558 45.2174 33.2473 45.2658 33.319 45.3802C33.4492 45.5872 33.7993 45.7415 34.2208 45.7774C34.6828 45.817 34.7451 45.8654 34.4599 45.9644C34.3204 46.0128 34.2169 46.1112 34.1721 46.2384C34.1085 46.4205 34.1179 46.4394 34.2905 46.4689C34.394 46.4865 34.5355 46.5254 34.605 46.5548C34.7042 46.597 34.749 46.5617 34.8146 46.3891C34.8603 46.2688 34.9324 46.1701 34.9745 46.1701C35.0417 46.1701 35.2903 46.63 35.2903 46.7539C35.2903 46.7788 35.1455 46.7794 34.9687 46.7552C34.6919 46.7173 34.6325 46.732 34.5414 46.8618C34.4093 47.0491 34.3434 47.0505 34.1727 46.8684C34.0731 46.7618 33.9894 46.7363 33.8525 46.7706C33.6283 46.8265 33.6069 46.9936 33.82 47.025C34.0653 47.0609 34.0647 47.2227 33.8197 47.2227C33.5053 47.2227 33.3846 47.2898 33.3846 47.4643C33.3846 47.6121 33.4135 47.6206 33.92 47.6206C34.4966 47.6206 34.6358 47.6984 34.5021 47.9462C34.443 48.0561 34.3804 48.0731 34.1624 48.0384C33.9706 48.0077 33.8703 48.0253 33.8077 48.1005C33.6948 48.2359 33.5257 48.2356 33.5257 48.1002C33.5257 47.99 33.3852 47.9681 33.1237 48.0381C33.0131 48.0675 32.9628 48.1424 32.9472 48.3003C32.93 48.4781 32.8972 48.5174 32.7794 48.5013C32.6091 48.4781 32.467 48.7276 32.467 49.0496C32.467 49.2421 32.4559 49.2503 32.2943 49.1771C32.0607 49.0712 32.0257 48.945 32.1893 48.7979C32.2945 48.7031 32.3257 48.5811 32.3257 48.2646C32.3257 47.8789 32.2938 47.8187 32.1028 47.8439C32.0773 47.8475 31.8084 47.803 31.5053 47.7452C30.8928 47.6288 30.7729 47.6455 30.7729 47.8475C30.7729 47.9237 30.7097 48.0054 30.6317 48.0299C30.4303 48.0933 30.4572 48.1868 30.6916 48.2382C30.8022 48.2624 30.999 48.3912 31.1289 48.5246L31.3652 48.7668H31.1153C30.8337 48.7668 30.6042 48.9613 30.6448 49.1653C30.664 49.2621 30.7351 49.2935 30.9352 49.2935C31.1478 49.2935 31.2342 49.3366 31.3721 49.5115C31.5253 49.7061 31.5331 49.7443 31.443 49.8627C31.2756 50.0823 31.3129 50.3043 31.5317 50.3903C31.6384 50.4322 31.7809 50.4946 31.8483 50.5292C31.9157 50.5636 32.0337 50.5917 32.1105 50.5917C32.2651 50.5917 32.3963 50.7839 32.3963 51.0105C32.3963 51.0916 32.4445 51.1762 32.5033 51.1988C32.6386 51.2501 32.9852 51.1102 33.1383 50.9418C33.2026 50.8712 33.419 50.7748 33.6198 50.727C33.8204 50.6796 34.0569 50.594 34.1455 50.5364C34.3425 50.4089 34.4333 50.4756 34.2918 50.644C34.2347 50.7117 34.1526 50.8509 34.1088 50.9529C33.9846 51.2439 33.576 51.5067 33.0695 51.6215C32.8158 51.6794 32.6081 51.7526 32.6081 51.785C32.6081 51.8713 33.2211 52.0893 33.3379 52.0449C33.393 52.0236 33.4703 52.039 33.5102 52.0785C33.6146 52.1825 34.0115 52.0769 34.1108 51.919C34.1572 51.8454 34.2532 51.785 34.3243 51.785C34.4148 51.785 34.4495 51.7379 34.4404 51.6271C34.4197 51.3724 34.4372 51.3417 34.5491 51.4342C34.7104 51.5672 34.676 51.7585 34.4609 51.9259C34.3324 52.0259 34.2548 52.1635 34.2315 52.3345L34.1961 52.5921L33.8707 52.5722C33.6915 52.5611 33.4135 52.5813 33.2529 52.6173C32.9904 52.6762 32.9611 52.6693 32.9611 52.5496C32.9611 52.3898 32.8323 52.3731 32.7736 52.5254C32.7506 52.5853 32.7814 52.6719 32.8421 52.7183C32.9293 52.785 32.9404 52.8654 32.8959 53.1002C32.8645 53.264 32.8537 53.4745 32.8719 53.5683C32.8982 53.7053 32.8722 53.7432 32.7399 53.7622C32.5082 53.7949 32.2822 54.248 32.2231 54.7982C32.1675 55.3164 32.1404 55.3203 32.7979 54.7178C33.0981 54.4428 33.2116 54.382 33.4258 54.382C33.639 54.382 33.7513 54.3229 34.0316 54.062C34.2208 53.8861 34.494 53.6929 34.639 53.6327C34.7837 53.5729 34.9813 53.4686 35.0787 53.4016C35.1757 53.3346 35.347 53.2574 35.4596 53.2303C35.5722 53.2032 35.7212 53.1093 35.7903 53.0217C35.8594 52.9344 36.1151 52.786 36.3584 52.6925C36.8967 52.4849 37.4078 52.0341 37.4078 51.766C37.4078 51.6653 37.4396 51.5633 37.4785 51.5394C37.5171 51.5156 37.5489 51.4188 37.5489 51.3247C37.5489 51.104 37.6557 51.1063 37.8033 51.3299C37.8903 51.4623 37.9425 51.4878 38.0103 51.4319C38.0736 51.3799 38.1152 51.3796 38.147 51.4306C38.1719 51.4711 38.3238 51.5041 38.4838 51.5041C38.7966 51.5041 39.6263 51.1275 39.9488 50.8388C40.2119 50.6035 41.1237 50.0173 41.6244 49.7616C41.8665 49.6381 42.3019 49.4916 42.5923 49.4363C42.8824 49.3814 43.1825 49.303 43.2588 49.2621C43.3795 49.198 43.4275 49.2317 43.6229 49.5197C43.8266 49.8198 43.8539 49.9251 43.912 50.625C43.947 51.0507 43.9574 51.4744 43.935 51.5666C43.9126 51.6588 43.7169 51.9033 43.5002 52.1106L43.1063 52.4869H43.3276C43.6238 52.4869 43.6154 52.6448 43.3097 52.8328C42.9145 53.0757 42.8814 53.1469 43.0112 53.4699C43.0823 53.6465 43.1251 53.961 43.1251 54.3052C43.1251 54.8175 43.1079 54.8822 42.8873 55.2016C42.7562 55.3909 42.5839 55.6731 42.5041 55.8283C42.3983 56.0346 42.2772 56.1458 42.054 56.2412C41.8862 56.3132 41.6218 56.4269 41.4664 56.494C41.3113 56.561 41.1098 56.6947 41.0189 56.7911C40.8414 56.9794 39.7359 57.3714 39.5659 57.3064C39.4601 57.2662 39.2943 56.6195 39.3514 56.4711C39.3709 56.4211 39.6405 56.2223 39.9511 56.0301C40.2613 55.8378 40.5345 55.6198 40.5582 55.5459C40.5818 55.4717 40.8005 55.2 41.0442 54.9421C41.5238 54.434 41.7136 54.1313 41.7136 53.873C41.7136 53.6484 41.5864 53.5396 41.3246 53.5396C41.0212 53.5396 40.9018 53.6553 40.7629 54.0836C40.6974 54.2863 40.6007 54.452 40.5487 54.452C40.4965 54.452 40.3164 54.3418 40.1487 54.2071C39.9806 54.0724 39.7697 53.9243 39.6798 53.8779C39.5899 53.8318 39.4987 53.705 39.477 53.5964C39.4209 53.3179 39.3261 53.3516 39.3002 53.6595C39.2794 53.9083 39.2661 53.9207 39.0029 53.9371C38.8514 53.9466 38.6651 53.9211 38.5895 53.8809C38.3209 53.738 37.986 53.8789 37.4568 54.3582C37.0551 54.722 36.8903 54.9358 36.6667 55.3834L36.3841 55.9486L36.0314 55.9683C35.0239 56.0242 34.9674 56.052 34.652 56.6437C34.5303 56.8725 34.4881 56.9 34.3149 56.8657C34.1461 56.832 34.0858 56.8663 33.9119 57.0955C33.7993 57.2436 33.539 57.5627 33.334 57.8046C33.1289 58.0465 32.9611 58.2924 32.9611 58.3512C32.9611 58.5372 32.6837 59.0077 32.5062 59.1234C32.4126 59.1845 32.1668 59.2476 31.9602 59.2633C31.7536 59.2793 31.4486 59.3081 31.2825 59.3277C30.9807 59.363 30.9804 59.3627 30.987 59.1361C30.9907 59.0113 30.9728 58.7827 30.9475 58.6284C30.9173 58.4447 30.9398 58.2384 31.0125 58.0318C31.1523 57.6346 31.1547 57.4022 31.0207 57.2119C30.9241 57.0749 30.934 57.0337 31.1442 56.6993C31.27 56.4995 31.5396 56.117 31.7434 55.8493C31.9472 55.5815 32.114 55.3367 32.114 55.3053C32.114 55.2739 31.9344 55.2569 31.715 55.268C31.2072 55.2932 31.0943 55.2294 30.9615 54.8417C30.845 54.5017 30.8937 54.164 31.1055 53.8426C31.2055 53.6909 31.203 53.6801 31.0675 53.6801C30.9877 53.6801 30.904 53.6504 30.8815 53.6144C30.8082 53.4964 30.4031 53.329 30.1907 53.329C30.0462 53.329 29.9726 53.2885 29.9481 53.1956C29.9288 53.1224 29.8419 53.0488 29.7551 53.0322C29.6215 53.0067 29.602 53.0276 29.629 53.1678C29.6464 53.2587 29.7204 53.365 29.7933 53.4039C29.9017 53.4614 29.9258 53.5559 29.9258 53.9227C29.9258 54.3614 29.9193 54.3768 29.6094 54.6746C29.2063 55.0617 29.1895 55.2307 29.5553 55.2193C29.7009 55.2144 29.9575 55.234 30.1255 55.2624C30.4786 55.3223 30.5611 55.4589 30.5611 55.9833C30.5611 56.1641 30.6258 56.4812 30.7048 56.6878L30.8483 57.0635L30.5375 57.4247C30.3666 57.6235 30.0955 57.9203 29.9351 58.0844C29.7747 58.2486 29.6435 58.4045 29.6435 58.431C29.6435 58.4575 29.7122 58.5516 29.7963 58.6405C29.9448 58.7978 29.9455 58.8063 29.8197 58.9446C29.7486 59.0227 29.6825 59.1571 29.6728 59.2434C29.6632 59.3297 29.6526 59.4131 29.6494 59.4287C29.6338 59.5043 29.3639 59.1904 29.2885 59.0093C29.2414 58.8962 29.1752 58.8037 29.1414 58.8037C28.959 58.8037 28.707 59.1711 28.4726 59.7786C28.3294 60.1496 28.181 60.4929 28.1428 60.5409C28.0275 60.6867 27.3621 60.6514 27.1538 60.4883C27.0551 60.4112 26.8971 60.3481 26.8028 60.3481C26.6045 60.3481 26.1135 60.7822 25.9447 61.1068C25.7913 61.4017 25.7177 61.4321 25.4041 61.3292C25.1631 61.25 25.1113 61.2549 24.944 61.373C24.2516 61.8617 24.1445 61.863 23.432 61.3893ZM31.5356 47.0456C31.5139 47.024 31.4744 47.0629 31.4479 47.1322C31.4096 47.2322 31.4177 47.2404 31.4874 47.1714C31.5356 47.1237 31.5574 47.0671 31.5356 47.0456ZM32.1492 47.1528C32.1732 47.1142 32.1732 47.0508 32.1491 47.0122C32.0975 46.9292 31.8316 47.0488 31.8316 47.1551C31.8316 47.2447 32.0933 47.2427 32.1492 47.1528ZM30.6602 46.9772C30.8032 46.8808 30.9684 46.8017 31.0272 46.8017C31.086 46.8017 31.1144 46.7703 31.0904 46.7317C31.0218 46.6212 30.6383 46.6497 30.4131 46.7817C30.2137 46.8991 30.1593 47.0106 30.2552 47.106C30.3302 47.1806 30.3844 47.1633 30.6602 46.9772ZM31.6198 46.6572C31.6198 46.6209 31.5722 46.5911 31.5139 46.5911C31.4048 46.5911 31.3737 46.6742 31.4532 46.753C31.5096 46.8092 31.6198 46.7458 31.6198 46.6572ZM30.2764 46.4509C30.3165 46.4509 30.3493 46.4035 30.3493 46.3456C30.3493 46.2877 30.2894 46.2403 30.2162 46.2403C30.1221 46.2403 30.0738 46.3021 30.0518 46.4512C30.0144 46.7052 30.0758 46.7945 30.1502 46.5944C30.1796 46.5153 30.2364 46.4509 30.2764 46.4509ZM31.4202 45.5626C31.5664 45.4309 31.5951 45.1177 31.461 45.1164C31.4125 45.1157 31.2991 45.0958 31.209 45.0716C31.0527 45.0301 31.0475 45.0405 31.0947 45.3008C31.1718 45.7248 31.2077 45.7539 31.4202 45.5626ZM32.6785 45.3979C32.6785 45.3593 32.6487 45.3279 32.6123 45.3279C32.5757 45.3279 32.526 45.3593 32.502 45.3979C32.478 45.4368 32.5082 45.4682 32.5685 45.4682C32.6292 45.4682 32.6785 45.4368 32.6785 45.3979ZM32.9608 45.4371C32.9608 45.4201 32.929 45.3867 32.8904 45.3629C32.8515 45.339 32.8197 45.3531 32.8197 45.3939C32.8197 45.4348 32.8515 45.4682 32.8904 45.4682C32.929 45.4682 32.9608 45.4544 32.9608 45.4371ZM32.2419 45.24C32.2594 45.1488 32.2187 45.1174 32.0838 45.1174C31.9472 45.1174 31.9022 45.1533 31.9022 45.2625C31.9022 45.3727 31.9402 45.4024 32.0603 45.3854C32.1472 45.373 32.229 45.3076 32.2419 45.24ZM30.7834 45.2226C30.7834 45.186 30.7492 45.1445 30.7075 45.1308C30.6658 45.117 30.6317 45.1582 30.6317 45.2226C30.6317 45.287 30.6658 45.3282 30.7075 45.3145C30.7492 45.3004 30.7834 45.2593 30.7834 45.2226ZM32.9449 45.0602C32.9871 44.934 32.8411 44.9604 32.7921 45.0879C32.7655 45.1563 32.7814 45.1886 32.833 45.1713C32.8791 45.1563 32.9293 45.1063 32.9449 45.0602ZM32.1609 44.9228C32.2219 44.8843 32.2173 44.8356 32.1429 44.7345C32.0686 44.6335 32.0223 44.6188 31.9631 44.6777C31.9193 44.7211 31.9025 44.8065 31.9259 44.8669C31.9724 44.9873 32.0351 45.0023 32.1609 44.9228ZM30.561 44.727C30.561 44.6253 30.5305 44.5662 30.4905 44.591C30.4517 44.6146 30.4199 44.6956 30.4199 44.7705C30.4199 44.8454 30.4517 44.9068 30.4905 44.9068C30.5293 44.9068 30.561 44.8257 30.561 44.727ZM31.7012 44.5109C31.8035 44.4191 31.8496 44.4132 31.933 44.4818C31.9903 44.5292 32.0685 44.5485 32.1067 44.525C32.1998 44.4678 32.1666 44.0186 32.0616 43.9143C31.9394 43.7927 31.4081 44.1699 31.4081 44.3782C31.4081 44.6414 31.5066 44.6862 31.7012 44.5109ZM33.1558 44.3275C33.1399 44.2795 33.0419 44.1987 32.9381 44.1484C32.8343 44.098 32.7493 44.0271 32.7493 43.9905C32.7493 43.9538 32.6967 43.9241 32.6325 43.9241C32.5238 43.9241 32.5238 43.9329 32.6325 44.0526C32.6967 44.1229 32.7493 44.2157 32.7493 44.2582C32.7493 44.3246 32.8369 44.3589 33.1257 44.406C33.1581 44.4112 33.1714 44.3759 33.1558 44.3275ZM31.3551 44.2262C31.4814 44.1556 31.3971 43.9944 31.2341 43.9944C31.0851 43.9944 30.914 44.1614 30.914 44.3069C30.914 44.3468 31.2487 44.2853 31.3551 44.2262ZM30.561 44.2049C30.561 44.1663 30.5293 44.1346 30.4905 44.1346C30.4517 44.1346 30.4199 44.1663 30.4199 44.2049C30.4199 44.2435 30.4517 44.2749 30.4905 44.2749C30.5293 44.2749 30.561 44.2435 30.561 44.2049ZM32.171 42.7256C32.1571 42.6841 32.1155 42.6501 32.0786 42.6501C32.0418 42.6501 32.0002 42.6841 31.9863 42.7256C31.9724 42.7671 32.0139 42.8011 32.0786 42.8011C32.1433 42.8011 32.1849 42.7671 32.171 42.7256ZM32.5215 41.806C32.5822 41.7458 32.5838 41.6984 32.527 41.6304C32.4 41.4781 32.2551 41.5222 32.2551 41.7131C32.2551 41.8991 32.3831 41.9439 32.5215 41.806ZM6.70333 61.539C6.70333 61.4988 6.5604 61.3177 6.3857 61.1366C6.211 60.9551 6.06807 60.7554 6.06807 60.692C6.06807 60.5334 6.62066 59.857 6.75029 59.857C6.90133 59.857 7.69166 60.6632 7.69095 60.8165C7.69062 60.8888 7.50681 61.0905 7.26991 61.2781C6.85191 61.6096 6.70333 61.678 6.70333 61.539ZM1.14214 60.8966C1.02061 60.7757 1.03619 60.554 1.17321 60.4543C1.31085 60.3543 1.24405 60.2078 1.06076 60.2078C0.865541 60.2078 0.562459 59.7678 0.562459 59.4843C0.562459 59.3513 0.514813 59.2032 0.456582 59.1551C0.398348 59.1071 0.350701 59.024 0.350701 58.9711C0.350701 58.9178 0.31894 58.8743 0.280118 58.8743C0.241296 58.8743 0.209533 58.8409 0.209533 58.8001C0.209533 58.7592 0.238183 58.7432 0.2732 58.7648C0.308217 58.7863 0.359245 58.6121 0.386598 58.3777C0.430494 58.0017 0.418874 57.9334 0.287589 57.7941C0.153515 57.6522 0.141366 57.5712 0.164396 56.9716C0.182998 56.4874 0.230994 56.2141 0.340909 55.967C0.499546 55.6106 0.537636 55.2608 0.425367 55.1918C0.307108 55.1193 0.257849 54.535 0.351107 54.3111C0.449184 54.0757 0.434962 54.08 1.03891 54.0999L1.48006 54.1143V53.8907C1.48006 53.7285 1.51765 53.6573 1.6168 53.6318C1.73407 53.601 1.74297 53.5696 1.67932 53.4101C1.6385 53.3078 1.6079 53.1178 1.61132 52.988C1.61474 52.8579 1.58445 52.6902 1.544 52.615C1.48472 52.5048 1.53993 52.3362 1.82854 51.7457C2.05605 51.2802 2.22684 51.0131 2.29691 51.0131C2.41736 51.0131 2.39137 50.8578 2.21226 50.5077C2.10509 50.2981 2.08095 49.7793 2.17566 49.7208C2.20885 49.7005 2.30622 49.4922 2.39205 49.2582L2.5481 48.8325L2.32847 48.4778C2.16776 48.2179 2.09762 48.0034 2.06705 47.6778L2.02526 47.2329L2.26441 47.1884C2.39593 47.1639 2.86613 47.1381 3.30929 47.1309C4.06698 47.1185 4.11614 47.126 4.13334 47.2581C4.1434 47.3352 4.20356 47.6667 4.26699 47.9949C4.33046 48.3232 4.38841 48.6707 4.39584 48.7671L4.40934 48.9427L3.7572 48.9329C3.08146 48.9231 2.98658 48.9787 3.43977 49.1196C3.90052 49.2624 4.79764 49.6989 4.79498 49.7783C4.7918 49.8734 4.38127 50.1314 3.59762 50.5315L2.99764 50.8375L3.80938 50.881C4.25583 50.9049 4.69254 50.9287 4.77989 50.9337C5.00846 50.9471 4.97581 51.0477 4.68823 51.2164C4.34162 51.4198 4.20112 51.7627 4.33445 52.0802C4.41262 52.2662 4.41687 52.377 4.35473 52.6085C4.29418 52.8341 4.29662 52.94 4.36518 53.0672C4.44289 53.2117 4.41709 53.3401 4.16381 54.0705C3.80059 55.1179 3.73316 55.2245 3.43302 55.2245C3.11572 55.2245 2.97865 55.3442 2.87111 55.7159C2.74358 56.1562 2.58078 56.1383 2.55225 55.6806C2.52279 55.2082 2.42723 55.1382 2.32555 55.5142C2.27991 55.6829 2.19551 55.9091 2.13799 56.017C2.04542 56.1902 2.04568 56.2484 2.14028 56.5247C2.23977 56.815 2.23698 56.8693 2.09992 57.3116C2.01893 57.5728 1.93173 58.0547 1.90614 58.3829C1.86027 58.9711 1.76775 59.3107 1.63033 59.3951C1.53749 59.4523 1.39113 60.1542 1.38169 60.588C1.37398 60.9421 1.29291 61.0467 1.14214 60.8966ZM2.65944 54.505C2.69646 54.4569 2.81266 54.1803 2.91767 53.891C3.02267 53.6013 3.20064 53.243 3.31315 53.0949C3.54827 52.7853 3.54168 52.7491 3.14775 52.1887C2.8185 51.7206 2.61086 51.6532 2.60694 52.0135C2.60438 52.2492 2.49846 52.7553 2.28896 53.5327C2.17046 53.9724 2.17105 53.9881 2.31718 54.2872C2.47274 54.6056 2.54631 54.6524 2.65944 54.505ZM14.1148 57.5319C14.1148 57.4499 14.1975 57.1995 14.2987 56.9752C14.3999 56.7509 14.4691 56.527 14.4525 56.4776C14.4302 56.4112 14.2591 56.3929 13.7998 56.409L13.1774 56.4302L13.2235 56.2661C13.3595 55.7819 13.3541 55.5413 13.2044 55.4063C13.1227 55.3331 13.056 55.199 13.056 55.1085C13.056 55.0182 12.9494 54.8257 12.8191 54.6808C12.432 54.2503 12.4081 54.1699 12.5006 53.6128C12.6088 52.9609 12.6737 52.9135 13.183 53.1136C14.0688 53.4614 14.2135 53.6085 14.2847 54.2333C14.3279 54.6135 14.3645 54.6884 14.6298 54.9408L14.9265 55.2232L15.0134 55.0307C15.1723 54.6792 15.4963 54.2768 15.6208 54.2768C15.6902 54.2768 15.8114 54.3971 15.8997 54.5533C16.0113 54.7508 16.1223 54.8469 16.2886 54.8894C16.6038 54.9708 16.6341 55.1003 16.4377 55.5279C16.2379 55.9634 15.3736 57.1481 15.1491 57.2943C15.0195 57.3789 14.23 57.681 14.139 57.681C14.1257 57.681 14.1148 57.614 14.1148 57.5319ZM46.963 57.3476C46.8018 57.1105 46.6979 55.963 46.718 54.6475L46.732 53.755L46.5344 53.7082C46.4257 53.6827 46.2732 53.6059 46.1956 53.5379C46.1181 53.4696 45.8699 53.3764 45.6447 53.3307C45.3092 53.2627 45.2225 53.2152 45.1667 53.0698C45.1294 52.9717 45.036 52.8122 44.959 52.7151C44.8821 52.618 44.8182 52.4401 44.8169 52.3198C44.8156 52.1995 44.7511 51.9275 44.6735 51.715C44.596 51.5028 44.4363 51.0187 44.3182 50.6394C44.1245 50.0153 44.1112 49.9156 44.1813 49.5916C44.2235 49.3948 44.3224 49.1307 44.401 49.0045C44.5856 48.707 44.6978 48.0021 44.6372 47.5196L44.5895 47.1387L44.3711 47.1822C44.1216 47.2319 44.0226 47.364 43.9723 47.7141C43.9373 47.958 43.934 47.9603 43.5223 47.9949C43.1245 48.0286 43.1043 48.0397 43.0281 48.2689C42.9379 48.5402 42.775 48.6697 42.6053 48.605C42.4443 48.5435 42.4615 48.3778 42.6468 48.2061C42.7769 48.0855 42.7893 48.0384 42.7205 47.9286C42.6546 47.8236 42.6585 47.7788 42.7399 47.7115C42.8224 47.6438 42.8428 47.6481 42.8428 47.7334C42.8428 47.925 43.0596 47.9332 43.2786 47.7497C43.3944 47.653 43.5255 47.5739 43.5706 47.5739C43.6154 47.5739 43.8117 47.4062 44.0064 47.2008C44.2011 46.9955 44.41 46.8095 44.4707 46.787C44.5311 46.7647 44.6193 46.6245 44.6667 46.4757C44.7683 46.1576 45.1936 45.7902 45.6022 45.6686C45.8358 45.5989 45.913 45.6051 46.1074 45.7084C46.2557 45.7872 46.4491 45.8222 46.6544 45.8072C46.966 45.7846 46.9728 45.7787 47.0075 45.5087C47.0266 45.3573 47.087 45.219 47.1408 45.2014C47.2369 45.17 47.2252 45.3282 47.1097 45.6277C47.085 45.6914 47.1879 45.8333 47.3813 46.0027C47.8456 46.4094 48.1117 47.0093 47.9417 47.2662C47.9131 47.3091 47.8219 47.3653 47.7392 47.3911C47.6191 47.4284 47.5604 47.3905 47.4501 47.2044C47.2976 46.9475 46.6567 46.3996 46.7797 46.6313C46.9043 46.8657 47.0685 47.3192 47.1149 47.5556C47.1707 47.841 47.3355 47.9691 48.1724 48.3794C48.6276 48.6027 48.8414 48.7456 48.8388 48.8253C48.8336 48.9989 47.8145 49.7002 47.6217 49.6632C47.3897 49.6184 46.1255 50.9337 46.194 51.1484C46.2615 51.3606 46.5668 51.5496 46.6723 51.4446C46.7167 51.4005 46.8719 51.3642 47.0166 51.3642C47.2239 51.3642 47.3099 51.4054 47.4189 51.5581C47.4952 51.6647 47.5688 51.8304 47.5825 51.9265C47.5993 52.0439 47.6587 52.1083 47.7648 52.1233C47.8865 52.1407 47.9699 52.0704 48.1354 51.8111C48.2525 51.6274 48.3486 51.4374 48.3486 51.3887C48.3486 51.1278 48.5127 50.592 48.5929 50.592C48.76 50.592 48.8674 50.9833 48.7869 51.2985C48.7275 51.5306 48.7331 51.5911 48.8161 51.6228C48.9641 51.6794 49.1841 51.4525 49.2091 51.2181C49.2295 51.0288 49.2412 51.0219 49.4047 51.1033C49.5566 51.1792 49.589 51.2648 49.6624 51.7859C49.9476 53.8158 49.9258 54.282 49.517 54.8911C49.3681 55.113 49.2214 55.2948 49.1909 55.2948C49.077 55.2948 48.9871 55.7741 48.9771 56.4351C48.9712 56.8117 48.9365 57.1197 48.8998 57.1197C48.8632 57.1197 48.7292 57.0406 48.6016 56.9441C48.3742 56.7715 48.1367 56.712 48.1367 56.8274C48.1367 56.9141 47.3063 57.5408 47.1918 57.5408C47.1382 57.5408 47.0351 57.4538 46.963 57.3476ZM49.1821 54.6959C49.1701 54.5102 49.1244 54.3464 49.0802 54.332C48.955 54.2908 48.8985 54.6521 48.9881 54.9221C49.0987 55.2549 49.21 55.1248 49.1821 54.6959ZM47.9871 52.9782C47.9897 52.5536 47.9676 52.2064 47.9384 52.2064C47.8375 52.2064 47.6295 53.1806 47.6805 53.4166C47.7359 53.6756 47.8433 53.8357 47.9267 53.7844C47.9576 53.7655 47.9848 53.4026 47.9871 52.9782ZM46.4426 52.3858C46.4426 52.2917 46.4108 52.1952 46.3722 52.1714C46.3309 52.1459 46.3014 52.2172 46.3014 52.3427C46.3014 52.4607 46.3332 52.5572 46.3722 52.5572C46.4108 52.5572 46.4426 52.4803 46.4426 52.3858ZM47.7122 49.1313C47.711 49.029 47.7015 49.0274 47.6425 49.1179C47.5533 49.2556 47.5533 49.3484 47.6425 49.2935C47.6814 49.2696 47.7126 49.1967 47.7122 49.1313ZM10.4186 54.9783C10.3279 54.7433 10.3706 54.5102 10.5112 54.4736C10.7208 54.4193 10.7181 54.2267 10.5048 54.025C10.328 53.858 10.3129 53.8008 10.3149 53.3071L10.317 52.7706L10.5748 52.6994C11.0896 52.5572 11.2015 52.5944 11.3933 52.9707C11.4895 53.1597 11.6204 53.5206 11.6842 53.773L11.8001 54.232L11.6125 54.4765C11.4336 54.7099 11.0143 54.9571 10.6382 55.0509C10.5127 55.0823 10.4509 55.0617 10.4186 54.9783ZM44.5369 54.3683V53.9335L44.7838 54.1715C45.1288 54.504 45.0885 54.8034 44.6991 54.8034C44.5473 54.8034 44.5369 54.7753 44.5369 54.3683ZM5.82105 54.4553C5.60147 54.3644 5.31574 54.0211 5.2341 53.7504C5.02715 53.0639 4.99405 52.9007 4.98444 52.5169C4.9787 52.2881 5.02046 51.8484 5.07725 51.5394C5.16119 51.0831 5.21943 50.9412 5.38852 50.7816C5.54686 50.6319 5.61046 50.6067 5.65478 50.676C5.74911 50.8241 5.72357 51.0131 5.60929 51.0131C5.46149 51.0131 5.47733 51.1082 5.65112 51.2648C5.90178 51.4904 5.95408 51.6611 5.93523 52.193C5.92047 52.6091 5.94639 52.7618 6.07226 53.0001C6.32272 53.4748 6.35751 53.668 6.24202 53.943C6.18518 54.078 6.13868 54.264 6.13868 54.3556C6.13868 54.5295 6.05989 54.554 5.82105 54.4553ZM7.3287 53.8397C6.93456 53.8083 6.83978 53.7132 6.64139 53.1492C6.39381 52.4457 6.47756 51.9854 6.83277 52.0975C6.90769 52.121 7.15111 52.3685 7.37377 52.6471C7.8905 53.294 7.94167 53.3225 8.05002 53.0247C8.1031 52.8788 8.22614 52.7402 8.37248 52.6618C8.88626 51.5522 7.81516 52.1047 9.25364 51.9778C9.38888 51.9631 9.42477 52.0161 9.51968 52.3721L9.62935 52.7837L9.432 52.9403C9.32346 53.0263 8.93678 53.2045 8.57275 53.3359C8.09346 53.5092 7.89076 53.6187 7.838 53.7331C7.79793 53.8197 7.74066 53.8851 7.71071 53.8783C7.68076 53.8714 7.50885 53.8537 7.3287 53.8397ZM25.2672 53.4944C24.7829 53.4219 24.5901 53.3182 24.3609 53.007C24.2313 52.8308 24.1465 52.6657 24.1727 52.6395C24.2162 52.5964 25.62 52.5686 25.6201 52.6108C25.6201 52.6212 25.5821 52.6899 25.5356 52.7638C25.4649 52.8766 25.4759 52.9194 25.6027 53.0263C25.7152 53.1211 25.7439 53.2038 25.7143 53.347C25.674 53.5409 25.6438 53.5507 25.2672 53.4944ZM34.7773 50.9255C34.7302 50.6178 34.7727 50.5698 35.0521 50.6149C35.3029 50.6554 35.3697 50.559 35.2049 50.3949C35.0894 50.2801 35.2808 50.0781 35.4226 50.1654C35.4979 50.2118 35.5047 50.286 35.4522 50.4962C35.4152 50.6453 35.3474 50.7594 35.3023 50.7499C35.2568 50.7401 35.2195 50.7944 35.2195 50.8702C35.2195 50.9987 35.0336 51.1533 34.8795 51.1533C34.8425 51.1533 34.7964 51.0507 34.7773 50.9255ZM48.8878 50.6136C48.8629 50.5887 48.8424 50.4469 48.8424 50.2978C48.8424 50.0778 48.8113 50.0153 48.6756 49.964C48.4592 49.8823 48.3975 49.7142 48.5406 49.5969C48.6295 49.524 48.66 49.5226 48.6834 49.592C48.7314 49.7332 48.9699 49.6926 49.0205 49.5344C49.065 49.3955 49.0712 49.3945 49.1643 49.5168C49.2925 49.6851 49.2899 49.8656 49.1536 50.2635C49.0384 50.5995 48.9677 50.6927 48.8878 50.6136ZM35.5966 49.487C35.203 49.4684 35.0813 49.437 35.0459 49.3451C34.9878 49.1948 35.1825 49.048 35.4398 49.048C35.5735 49.048 35.6877 48.9783 35.811 48.8214L35.9892 48.5952L36.1868 48.7397C36.2955 48.8194 36.4717 48.9061 36.5784 48.9322C36.6852 48.9587 36.7725 49.0215 36.7725 49.0718C36.7725 49.163 36.2374 49.5518 36.1485 49.5253C36.1229 49.5174 35.8746 49.5004 35.5966 49.487ZM23.8614 49.131L23.5497 48.8639L23.6307 48.5438C23.6753 48.3676 23.7315 48.1728 23.7555 48.1103C23.7855 48.0325 23.7463 47.977 23.6304 47.9332C23.5375 47.8979 23.4192 47.8187 23.3675 47.7566C23.3158 47.6948 23.1889 47.6442 23.0855 47.6442C22.9412 47.6442 22.8341 47.5598 22.6253 47.2816L22.353 46.919L22.3648 46.2214C22.3729 45.7428 22.4197 45.3969 22.5138 45.119C22.5893 44.896 22.673 44.577 22.6999 44.4096C22.7691 43.9797 23.255 42.9656 23.4386 42.8678C23.762 42.6955 24.0672 43.0175 24.0672 43.5305C24.0672 43.6563 24.1467 43.9538 24.2437 44.1912C24.4695 44.744 24.4659 44.8052 24.201 44.9183C23.9599 45.0213 23.7654 45.3845 23.4653 46.292L23.2973 46.8L23.5125 47.2571C23.7399 47.7406 23.8173 47.8043 23.8919 47.5703C23.9172 47.4912 24.0305 47.3319 24.1437 47.2169C24.3543 47.0027 24.3784 46.8828 24.3509 46.1887C24.3359 45.8118 24.5341 45.1232 24.6728 45.0703C24.7309 45.0481 24.8327 45.0778 24.8993 45.136C24.9697 45.1978 25.165 45.2445 25.3672 45.2475C25.5581 45.2504 25.7443 45.2828 25.781 45.3194C25.8178 45.356 25.8753 45.5322 25.9089 45.7114C25.9426 45.8902 26.0184 46.0847 26.0774 46.1436C26.357 46.4215 26.1172 46.8161 25.4394 47.1927C25.1894 47.3319 24.9849 47.4925 24.9849 47.55C24.9849 47.6893 25.3178 48.264 25.5346 48.4994C25.6707 48.6468 25.6976 48.7305 25.659 48.8855C25.6068 49.0941 25.3606 49.3988 25.244 49.3988C25.2059 49.3988 25.2273 49.3409 25.2916 49.2703C25.4588 49.0865 25.4384 49.048 25.175 49.048C25.037 49.048 24.844 49.1196 24.7025 49.2232C24.3782 49.4612 24.2271 49.4448 23.8614 49.131ZM25.7036 45.5934C25.653 45.543 25.6201 45.5388 25.6201 45.5829C25.6201 45.6764 25.7036 45.7594 25.7507 45.7127C25.7707 45.6927 25.7496 45.6391 25.7036 45.5934ZM41.8113 49.1572C41.7334 48.9558 41.821 48.8106 42.0576 48.7498C42.1883 48.7161 42.3366 48.7044 42.3872 48.7233C42.5521 48.7864 42.4106 49.0496 42.1546 49.1558C41.8528 49.2814 41.859 49.2814 41.8113 49.1572ZM16.3029 48.9012C15.9693 48.7796 15.8609 48.7701 15.5324 48.8335C15.0052 48.9355 14.9972 48.9342 14.7246 48.6962C14.3503 48.3693 14.1853 47.9511 14.1853 47.329C14.1853 46.6889 14.2288 46.6343 14.9621 46.3535C15.2531 46.242 15.7248 46.0445 16.0102 45.9147C16.7376 45.5842 16.756 45.5888 16.7027 46.0955C16.6786 46.3247 16.6375 46.6454 16.6113 46.8082C16.5402 47.2505 16.6904 47.1041 17.0048 46.4247C17.1499 46.1109 17.3214 45.8108 17.3857 45.7578C17.4901 45.6721 17.5226 45.7022 17.6861 46.0386C17.7869 46.2462 17.917 46.5055 17.9753 46.615C18.074 46.8007 18.0712 46.821 17.9332 46.9174C17.8385 46.9831 17.7852 47.0966 17.7852 47.2319C17.7852 47.3483 17.7375 47.4908 17.6793 47.5487C17.6062 47.6216 17.5734 47.8001 17.5734 48.1254C17.5734 48.5958 17.5729 48.5971 17.2783 48.8224C16.9355 49.0843 16.8285 49.0927 16.3029 48.9012ZM34.1685 49.0169C34.2873 48.8986 34.75 48.6266 34.8321 48.6266C34.9515 48.6266 35.103 48.8812 35.0424 48.979C35.0187 49.0169 34.8055 49.048 34.5686 49.048C34.3314 49.048 34.1513 49.0339 34.1685 49.0169ZM35.1157 48.349C35.0894 48.3068 35.09 48.1734 35.1167 48.0522C35.1569 47.871 35.1361 47.8102 34.9995 47.7079C34.908 47.6392 34.8613 47.5578 34.8954 47.5261C34.9291 47.4944 34.971 47.5082 34.9882 47.5562C35.0355 47.6883 35.3402 47.6618 35.4454 47.5167C35.496 47.4464 35.5927 47.3686 35.6605 47.3434C35.7364 47.3153 35.777 47.2371 35.7663 47.1394C35.7517 47.0031 35.7838 46.9798 35.9963 46.9733C36.1319 46.9687 36.3915 46.9965 36.5729 47.0348L36.9026 47.1041L36.8935 47.4908C36.886 47.7968 36.8494 47.9126 36.717 48.044C36.5677 48.1924 36.5252 48.2019 36.3257 48.1309C36.1047 48.0518 35.9895 48.079 35.2799 48.3768C35.2159 48.4036 35.142 48.3912 35.1157 48.349ZM37.8059 47.1884C37.7524 47.0498 38.0263 46.8017 38.2329 46.8017C38.4413 46.8017 38.4413 46.9455 38.2326 47.1404C38.0428 47.3179 37.8637 47.3378 37.8059 47.1884ZM39.1081 46.0491L38.95 45.9216L39.0977 45.7352C39.1788 45.6326 39.3479 45.5133 39.4734 45.4704C39.6937 45.3949 39.955 45.0791 40.0539 44.7689C40.089 44.6593 40.0461 44.575 39.8836 44.4331C39.7411 44.3089 39.6665 44.1781 39.6665 44.0529C39.6665 43.8247 39.7985 43.7217 39.9066 43.8649C40.0169 44.0114 40.2311 44.0807 40.2311 43.9702C40.2311 43.9205 40.3294 43.7874 40.4498 43.674C40.5698 43.5606 40.7584 43.2908 40.8687 43.0747C40.9793 42.8583 41.149 42.588 41.2457 42.4735C41.3427 42.3588 41.4437 42.179 41.4703 42.0737C41.4969 41.9684 41.5546 41.8942 41.5984 41.9086C41.7237 41.9495 41.7318 42.2071 41.6111 42.3068C41.5511 42.3565 41.5017 42.4549 41.5017 42.5252C41.5017 42.5958 41.4222 42.7387 41.3252 42.8426C41.2282 42.9469 41.1487 43.0842 41.1487 43.1483C41.1487 43.2121 41.1117 43.3013 41.0663 43.3464C41.0209 43.3915 40.9018 43.6393 40.8015 43.8973C40.7012 44.1549 40.5565 44.4007 40.48 44.4433C40.199 44.5992 40.038 44.9729 40.2489 44.9797C40.2973 44.9814 40.2278 45.0755 40.0942 45.189L39.8514 45.3956L40.0059 45.5594C40.0909 45.6493 40.1603 45.7526 40.16 45.7885C40.1597 45.8248 40.0085 45.9056 39.8245 45.9683C39.6405 46.0311 39.4397 46.1037 39.378 46.1295C39.3138 46.1563 39.1989 46.122 39.1081 46.0491ZM3.18523 45.5263C2.93481 45.288 2.88556 45.2007 2.91612 45.0487C2.93669 44.9464 2.95927 44.8333 2.96629 44.797C3.01278 44.5573 2.9504 43.503 2.88974 43.503C2.84981 43.503 2.73449 43.6923 2.63347 43.9241C2.53245 44.1556 2.42331 44.3452 2.39092 44.3452C2.35854 44.3452 2.29659 44.2795 2.25325 44.1987C2.19063 44.0823 2.20607 43.9748 2.32842 43.675C2.41311 43.4677 2.52686 43.2611 2.5812 43.2163C2.63554 43.1715 2.68001 43.0623 2.68001 42.9737C2.68001 42.8623 2.76161 42.7639 2.9447 42.6553C3.09028 42.5687 3.29236 42.4222 3.39372 42.3297C3.6302 42.1143 4.44065 41.7318 4.56256 41.7782C4.6842 41.8246 4.93872 41.3313 4.93872 41.0491C4.93872 40.8432 5.14448 40.5548 5.29166 40.5548C5.33047 40.5548 5.36223 40.5136 5.36223 40.463C5.36223 40.4123 5.45753 40.3008 5.57399 40.2152C5.69044 40.1295 5.78574 40.0919 5.78574 40.1318C5.78574 40.2436 6.00717 40.2171 6.15075 40.088C6.27087 39.9798 6.27983 39.9798 6.27983 40.088C6.27983 40.1517 6.24806 40.204 6.20925 40.204C6.09218 40.204 6.13001 40.4156 6.25568 40.4636C6.33275 40.493 6.42977 40.4424 6.54002 40.3149C6.67631 40.1573 6.6986 40.0749 6.66011 39.8706C6.62306 39.6744 6.64022 39.6002 6.73925 39.528C6.85947 39.4407 6.85675 39.4162 6.68344 39.0304C6.27742 38.1268 6.19205 37.8273 6.27382 37.5942C6.31594 37.4739 6.35043 37.2722 6.35043 37.146C6.35043 36.8256 6.41409 36.6945 6.56971 36.6945C6.68938 36.6945 6.7033 36.6376 6.70295 36.1505C6.70272 35.8514 6.67196 35.4212 6.63461 35.1943C6.55248 34.6957 6.57896 34.6365 7.14962 34.0448C7.60548 33.5724 7.65191 33.5574 8.23708 33.6927C8.54429 33.7637 8.68181 33.8506 9.01449 34.1851C9.36435 34.5365 9.40692 34.6074 9.33112 34.713C9.16126 34.9487 9.15074 35.0357 9.26759 35.2381C9.43447 35.5274 9.41844 35.5987 9.12982 35.8504C8.68719 36.2368 8.10605 36.9286 7.96338 37.2385C7.84706 37.4912 7.7943 37.537 7.61765 37.537C7.39344 37.537 7.33827 37.6717 7.5059 37.81C7.68852 37.9607 7.9858 38.7169 7.91536 38.8516C7.72684 39.2115 7.45376 40.1759 7.36774 40.7856C7.2666 41.5022 7.22704 41.6343 7.13129 41.5755C7.06863 41.5369 6.95594 40.8703 6.97953 40.6777C6.99939 40.5156 6.87839 40.5228 6.58805 40.7013C6.3151 40.869 6.24546 41.0645 6.30883 41.4859C6.36276 41.8445 6.18443 42.9247 6.00541 43.3235C5.93517 43.4801 5.73477 43.7662 5.56013 43.9591C5.3342 44.2088 5.19623 44.4517 5.08208 44.8016C4.9898 45.084 4.83372 45.3851 4.7149 45.5103C4.52716 45.7078 4.47712 45.7248 4.16799 45.695C3.95977 45.6754 3.80883 45.6931 3.77907 45.7408C3.68747 45.8882 3.49155 45.8176 3.18523 45.5263ZM4.7857 43.7629C4.87088 43.6606 4.7343 43.0842 4.61924 43.06C4.54533 43.0447 4.42741 43.6328 4.47767 43.7662C4.52076 43.8803 4.68907 43.8787 4.7857 43.7629ZM40.5134 45.5783C40.5134 45.5231 40.5851 45.4554 40.6724 45.4283C40.7597 45.4011 40.9122 45.3122 41.0108 45.2305C41.1098 45.1491 41.3083 45.0196 41.4521 44.9434C41.6296 44.8493 41.7136 44.7561 41.7136 44.6531C41.7136 44.4707 41.4725 44.3864 41.3544 44.5279C41.3096 44.5819 41.2211 44.6253 41.1578 44.6244C41.0712 44.6234 41.0845 44.591 41.2133 44.4926L41.3836 44.3625L41.2308 44.2811C40.9975 44.1569 41.0475 44.1003 41.3986 44.0908C41.5835 44.0856 41.7717 44.0336 41.845 43.9679C41.9148 43.9051 42.0047 43.8538 42.0452 43.8538C42.0855 43.8538 42.2419 43.7096 42.3924 43.5331C42.543 43.3566 42.8198 43.062 43.0076 42.8783C43.2228 42.6674 43.3399 42.4961 43.3253 42.414C43.3088 42.3238 43.3552 42.2708 43.4762 42.2414L43.6504 42.1989L43.4931 42.0894C43.3503 41.99 43.3389 41.9367 43.3711 41.5304C43.3905 41.2835 43.4262 40.8111 43.4506 40.4806L43.4944 39.8797L43.1511 39.5947C42.8701 39.3616 42.7672 39.3158 42.5865 39.3426C42.2902 39.3864 42.2364 39.2694 42.4534 39.0536C42.5848 38.9228 42.6312 38.8028 42.6312 38.593C42.6312 38.3249 42.6192 38.3089 42.4213 38.3089C42.2698 38.3089 42.1679 38.368 42.053 38.5227C41.9456 38.6668 41.8441 38.7296 41.7402 38.7159C41.6555 38.7051 41.5264 38.7499 41.4531 38.8156C41.3226 38.933 40.5101 39.2187 40.3018 39.2203C40.1162 39.222 39.8479 38.6132 39.8479 38.1908C39.8479 37.858 39.8725 37.7923 40.0497 37.6521C40.2359 37.5043 40.2473 37.4677 40.2019 37.1669C40.1749 36.9881 40.0753 36.6962 39.9803 36.5186C39.8855 36.3411 39.8076 36.1698 39.8076 36.1381C39.8076 36.1061 39.7541 35.9576 39.6886 35.8082L39.5691 35.5366L39.5224 35.8524C39.4871 36.093 39.5013 36.1865 39.5828 36.2457C39.6425 36.2891 39.6704 36.3728 39.646 36.4363C39.6168 36.5114 39.6717 36.5984 39.8109 36.6968C39.9452 36.7919 40.0195 36.906 40.0195 37.0175C40.0195 37.2202 39.8372 37.314 39.6746 37.195C39.612 37.1493 39.5085 37.094 39.4445 37.0724C39.381 37.0509 39.3079 36.9332 39.2826 36.8112L39.2362 36.5892L39.0808 36.7782C38.9955 36.8818 38.8777 37.0339 38.8196 37.1156C38.7177 37.2588 38.7038 37.2601 38.4666 37.1512C38.3306 37.0891 38.048 36.9371 37.8384 36.8138C37.4954 36.6115 37.4484 36.5543 37.3672 36.2385C37.2027 35.5974 37.1914 35.2763 37.3215 34.9448C37.4526 34.611 37.5726 34.5322 38.7271 34.0236C39.1558 33.8346 39.2852 33.8071 39.5562 33.8477C39.7366 33.8745 39.9676 33.9706 40.0821 34.0667C40.3339 34.2773 40.5711 34.2831 40.9556 34.0883C41.3333 33.8967 41.6241 33.814 41.7513 33.8627C41.8067 33.8836 41.9216 34.0164 42.0066 34.1573C42.092 34.2982 42.263 34.5715 42.3869 34.7644C42.5871 35.0769 42.6212 35.208 42.6974 35.9576C42.7448 36.4209 42.825 36.8648 42.8762 36.944C42.9275 37.0234 43.1371 37.2709 43.3422 37.4942C43.6657 37.8459 43.7416 37.895 43.9113 37.8613C44.0557 37.8325 44.0976 37.8469 44.0713 37.9156C44.0343 38.0114 44.1845 38.2163 44.7588 38.8532C45.1443 39.2802 45.3173 39.696 45.5658 40.7925C45.842 42.0096 45.891 42.1862 46.0334 42.4709C46.1067 42.6177 46.2128 42.7553 46.2693 42.7769C46.3258 42.7985 46.3722 42.8443 46.3722 42.8786C46.3722 42.9129 46.499 43.2219 46.6544 43.5648C46.8099 43.9078 46.9367 44.2229 46.9367 44.2651C46.9367 44.3596 46.622 44.522 46.3319 44.5766C46.182 44.6048 46.0516 44.5753 45.9085 44.4818C45.7706 44.3913 45.5782 44.3458 45.3319 44.3455C44.9824 44.3452 44.9568 44.3576 44.8617 44.5734C44.7546 44.8163 44.2702 45.3668 44.2131 45.3099C44.1943 45.2913 44.1466 45.0745 44.1066 44.8284C44.0664 44.5802 43.9765 44.3177 43.9051 44.2399C43.8341 44.1628 43.6926 43.9336 43.5907 43.7309C43.4885 43.5285 43.3808 43.3624 43.3509 43.3624C43.2432 43.3624 42.5605 44.1068 42.5605 44.2245C42.5605 44.3609 42.4456 44.3887 42.4035 44.2625C42.3879 44.2164 42.3373 44.2036 42.2883 44.2337C42.226 44.2719 42.2221 44.3131 42.275 44.3766C42.3292 44.4413 42.3107 44.5148 42.2078 44.6446C42.1299 44.743 42.0663 44.8718 42.0663 44.9307C42.0663 44.9895 42.0027 45.0575 41.9252 45.0821C41.8476 45.1066 41.784 45.1553 41.784 45.1903C41.784 45.3125 41.3953 45.4482 41.1373 45.4162C40.9277 45.3903 40.8638 45.4119 40.7996 45.5316C40.7097 45.6986 40.5134 45.7307 40.5134 45.5783ZM26.4212 44.1778L26.0794 43.8698L26.093 42.195C26.102 41.0972 26.1387 40.3881 26.1995 40.1377C26.2854 39.7836 26.3207 39.7385 26.6797 39.5221C27.021 39.3168 27.1176 39.2909 27.4906 39.3076L27.9141 39.3266L27.9369 39.8882C27.9605 40.4705 27.8824 40.9949 27.6915 41.5376C27.6304 41.7115 27.5821 41.9325 27.5842 42.0289C27.5863 42.1254 27.5544 42.3307 27.5133 42.4853C27.4723 42.6396 27.4287 42.928 27.4164 43.1258C27.4041 43.3239 27.3253 43.7109 27.2413 43.9856C27.1096 44.4171 27.0663 44.4854 26.9259 44.4854C26.8327 44.4854 26.6171 44.354 26.4212 44.1778ZM28.9357 43.4187C28.8115 43.2183 28.6642 42.9008 28.6083 42.7135C28.5132 42.3951 28.516 42.3585 28.6516 42.1401C28.8449 41.8292 28.8468 41.4267 28.6553 41.377C28.4689 41.3283 28.479 41.2218 28.7098 40.8007C28.8995 40.4548 28.9078 40.4492 29.2729 40.4286C29.5082 40.4149 29.6435 40.4355 29.6435 40.4845C29.6435 40.6192 30.0105 40.9059 30.1831 40.9059C30.428 40.9059 30.3851 41.0387 30.1022 41.156C29.9664 41.2126 29.8552 41.3005 29.8552 41.3519C29.8552 41.4032 29.9509 41.7197 30.068 42.0554C30.245 42.5638 30.2667 42.6922 30.1972 42.8214C30.0732 43.0519 29.3534 43.7835 29.2505 43.7835C29.2015 43.7835 29.0599 43.6194 28.9357 43.4187ZM21.9279 41.5264C21.6637 41.5 21.3687 41.4271 21.2725 41.3643C21.1206 41.2652 21.1036 41.2162 21.1439 40.9903C21.2009 40.6715 21.2193 40.6513 21.5199 40.5751C21.7316 40.5215 21.7754 40.4692 21.8831 40.1406C21.9675 39.8833 22.1159 39.6548 22.3598 39.4063C22.5547 39.2082 22.7646 38.9232 22.8263 38.7734C22.8881 38.6234 23.0505 38.3775 23.1872 38.2271C23.4168 37.9744 23.785 37.2735 23.7849 37.0894C23.7848 36.906 24.1085 35.9939 24.1731 35.9956C24.3446 35.9998 24.5069 36.1999 24.467 36.3581C24.4234 36.5307 24.5205 36.7586 24.6028 36.6769C24.6601 36.6197 24.6565 36.3669 24.5921 35.9227C24.5603 35.703 24.4906 35.5614 24.3637 35.4584L24.181 35.3103L24.3332 35.2293C24.5211 35.1292 24.4802 35.0053 24.2062 34.8445C24.091 34.7768 23.9967 34.6856 23.9967 34.6421C23.9967 34.5986 23.926 34.4881 23.8396 34.3966C23.6935 34.2419 23.69 34.2171 23.7889 34.0412C23.8556 33.9225 23.9664 33.8438 24.0863 33.8297C24.2329 33.8127 24.2906 33.7568 24.3343 33.5891C24.3751 33.4325 24.4507 33.3514 24.5999 33.3037C24.7146 33.2674 24.879 33.1736 24.9653 33.0958C25.0516 33.0176 25.21 32.9506 25.3173 32.9467C25.4527 32.9418 25.5374 32.8859 25.5939 32.7639C25.7785 32.3665 25.7746 32.2911 25.5584 32.0712C25.2072 31.7139 25.2106 31.6029 25.5831 31.2769C25.7634 31.1191 25.9745 30.8553 26.0524 30.6906C26.1735 30.4345 26.1827 30.3496 26.116 30.1035C26.0471 29.8489 26.0594 29.7654 26.2233 29.3773C26.3251 29.1361 26.444 28.8531 26.4875 28.7484C26.6118 28.4495 26.5034 28.4454 26.154 28.7358C25.9227 28.928 25.8319 29.0551 25.8319 29.1866C25.8319 29.295 25.759 29.4326 25.6531 29.5242C25.4296 29.7174 25.3194 29.9868 25.3288 30.317L25.3361 30.5722L24.9377 30.6217C24.7185 30.6489 24.4966 30.6875 24.4444 30.7074C24.3734 30.7344 24.3496 30.6618 24.3496 30.4187C24.3496 30.142 24.3752 30.0822 24.5225 30.0154C24.6176 29.9724 24.7266 29.8485 24.7645 29.7401C24.8025 29.6317 24.9153 29.4725 25.0151 29.3862C25.1167 29.2983 25.1966 29.1544 25.1966 29.0592V28.8891L24.9422 29.1112C24.8022 29.2334 24.6672 29.3131 24.6422 29.2882C24.6172 29.2633 24.7035 29.1481 24.8339 29.0322C25.0745 28.8185 25.1262 28.6423 25.0304 28.363C24.9854 28.2316 25.0195 28.187 25.2575 28.0662C25.4116 27.9881 25.719 27.7664 25.9405 27.5736C26.1621 27.3808 26.401 27.2049 26.4714 27.1826C26.5928 27.1443 27.0318 26.5587 27.0318 26.435C27.0318 26.3459 26.8995 26.3634 26.351 26.525L25.8467 26.6736L25.3732 26.4418C25.1127 26.3143 24.8897 26.1765 24.8776 26.1355C24.7659 25.7588 24.776 25.6715 24.9484 25.5224C25.1899 25.3136 25.1815 25.1761 24.9303 25.226C24.7926 25.2534 24.6992 25.2261 24.6154 25.1341C24.4225 24.9221 23.9261 23.7453 23.9261 23.4999C23.9261 23.2697 24.2082 22.3817 24.511 21.6587C24.6035 21.438 24.8223 21.1052 24.9972 20.9192C25.2922 20.6056 25.3188 20.5458 25.3655 20.0926C25.4202 19.562 25.4454 19.6124 24.9529 19.2669C24.7424 19.1193 24.7246 19.0207 24.8966 18.9565C24.9645 18.9311 25.0551 18.864 25.0979 18.8073C25.1658 18.7172 25.2326 18.7166 25.6222 18.8026C26.3255 18.9578 26.3966 19.0437 26.3966 19.7394C26.3966 20.2803 26.4115 20.34 26.6083 20.5862C26.7248 20.732 26.8208 20.8864 26.8216 20.9293C26.8224 20.9722 26.9653 21.2257 27.1392 21.4926C27.5066 22.0566 27.5298 22.2379 27.2612 22.4462C27.0235 22.6305 26.2887 23.2828 25.838 23.7097C25.5629 23.9702 25.4875 24.0977 25.4077 24.4378C25.3174 24.8227 25.3198 24.8566 25.4438 24.9467C25.6725 25.113 25.7522 25.0569 25.979 24.5695C26.1003 24.3089 26.2455 23.9973 26.3016 23.8769C26.3578 23.7566 26.5447 23.5574 26.717 23.4344C26.8894 23.3113 27.1234 23.0761 27.2372 22.9117C27.444 22.6127 27.8463 22.3 28.1452 22.2056C28.2325 22.1781 28.352 22.063 28.4108 21.95C28.5012 21.7762 28.5602 21.7444 28.7916 21.7444C29.0311 21.7444 29.0609 21.7266 29.0285 21.6036C28.9817 21.4254 29.1036 21.2791 29.4418 21.1075C29.6933 20.98 29.9964 20.9268 29.9964 21.0102C29.9964 21.0311 29.9363 21.1337 29.8629 21.2383C29.7895 21.3429 29.6749 21.5864 29.6083 21.7794C29.4327 22.2884 29.5441 22.6738 29.9224 22.8657C30.1844 22.9986 30.5945 23.4335 30.7635 23.7577C30.8075 23.842 30.8434 24.1364 30.8434 24.4118C30.8434 24.8135 30.7998 25.0169 30.6228 25.4395C30.4013 25.9686 30.3218 26.045 29.8376 26.194C29.7563 26.2191 29.7141 26.3032 29.7141 26.4402C29.7141 26.6067 29.6543 26.6882 29.4149 26.8481C29.1778 27.0064 29.1069 27.1021 29.073 27.3097C29.0202 27.6328 29.0401 27.6142 28.5784 27.7698L28.1965 27.8986L28.1514 28.3485C28.1267 28.5959 27.9899 29.1458 27.8475 29.5704C27.7051 29.995 27.4768 30.6741 27.3402 31.0795C26.9311 32.2934 26.5265 33.8928 26.5324 34.273C26.5364 34.5277 26.583 34.7977 26.6313 34.8458C26.7246 34.9386 26.6768 35.2149 26.5554 35.2852C26.4465 35.3483 26.4518 35.3571 26.6001 35.359C26.873 35.3623 27.3202 35.5186 27.2929 35.601C27.279 35.6425 27.1657 35.6925 27.0411 35.7121C26.7947 35.75 26.7882 35.7582 26.8584 35.94C26.9275 36.1195 26.8456 36.2734 26.6811 36.2734C26.5702 36.2734 26.5377 36.3192 26.5377 36.4755C26.5377 36.5866 26.585 36.7164 26.6428 36.7642C26.7789 36.8763 26.7147 36.9753 26.5059 36.9753C26.3868 36.9753 26.3283 37.0267 26.2944 37.161C26.2441 37.3605 26.2914 37.4357 26.5494 37.5664C26.675 37.6302 26.7088 37.6982 26.6917 37.8525C26.663 38.1127 26.4371 38.4279 26.2359 38.4883C26.1496 38.5145 26.0076 38.6005 25.9204 38.6799C25.7136 38.8682 25.6454 38.794 25.804 38.5531C25.9203 38.3765 25.9207 38.3599 25.8096 38.2981C25.7442 38.2615 25.6907 38.1702 25.6907 38.0947C25.6907 38.0195 25.6427 37.9581 25.5841 37.9581C25.5255 37.9581 25.3906 37.8329 25.2842 37.6799C25.1778 37.5269 25.0663 37.4007 25.0364 37.399C24.956 37.3951 25.0587 37.7449 25.2156 38.0094C25.384 38.2932 25.3615 38.3945 24.9399 39.2504C24.6253 39.8889 23.9972 40.7088 23.6871 40.886C23.396 41.0521 23.2908 41.0017 23.2908 40.6954C23.2908 40.391 23.1863 40.3181 23.1148 40.5725C23.0904 40.6594 23.0062 40.9089 22.9277 41.1269C22.7631 41.584 22.7108 41.6049 21.9279 41.5264ZM24.9849 37.0456C24.9849 37.0071 24.9372 36.9753 24.879 36.9753C24.8207 36.9753 24.7731 37.0071 24.7731 37.0456C24.7731 37.0842 24.8207 37.1156 24.879 37.1156C24.9372 37.1156 24.9849 37.0842 24.9849 37.0456ZM27.6296 25.728C27.6931 25.622 27.815 25.5214 27.9002 25.5043C27.9855 25.4871 28.1388 25.4558 28.2409 25.4345C28.3658 25.4084 28.4858 25.4422 28.6078 25.5375C28.7876 25.6782 28.7897 25.6783 28.8633 25.5414C28.9938 25.299 28.9438 24.9375 28.7175 24.4872L28.4973 24.0492L28.2644 24.2737C28.1363 24.3971 27.9575 24.5349 27.8669 24.5797C27.6821 24.6714 27.3966 25.1969 27.3864 25.4644C27.3827 25.5609 27.3343 25.7188 27.2789 25.8153C27.2234 25.9118 27.1769 26.0317 27.1755 26.0818C27.1719 26.213 27.4849 25.9691 27.6296 25.728ZM29.3611 24.511C29.3611 24.2911 29.1954 24.3152 29.1621 24.5398C29.1471 24.6411 29.1768 24.6923 29.2503 24.6923C29.3224 24.6923 29.3611 24.6289 29.3611 24.511ZM29.4267 23.7313C29.4324 23.4741 29.3306 23.3787 29.1816 23.5016C29.0449 23.6144 29.0515 23.8502 29.1971 24.057C29.3094 24.2163 29.3182 24.2181 29.3687 24.0902C29.3979 24.016 29.424 23.8545 29.4267 23.7313ZM40.6818 41.3662C40.5627 41.0573 40.8385 40.8657 41.0841 41.0867C41.2117 41.2015 41.213 41.2178 41.1033 41.3385C40.9628 41.4924 40.7363 41.5075 40.6818 41.3662ZM4.14145 40.1288C3.80351 39.7761 3.52702 39.4554 3.52702 39.4162C3.52702 39.3766 3.66995 39.1105 3.84465 38.8241C4.01935 38.538 4.16228 38.2765 4.16228 38.2432C4.16228 38.1192 4.72288 36.9753 4.78372 36.9753C4.8565 36.9753 5.4 37.3572 5.4564 37.4478C5.47713 37.4811 5.46733 37.5514 5.43459 37.604C5.3976 37.6638 5.43148 37.8152 5.52425 38.0052C5.65887 38.2808 5.66452 38.3393 5.58226 38.608C5.53216 38.7715 5.47875 39.016 5.46357 39.1513C5.41662 39.5692 4.98246 40.7268 4.86419 40.7497C4.80277 40.7614 4.48981 40.4927 4.14145 40.1288ZM40.9371 40.3073C40.9371 40.2426 41.0549 40.0746 41.1987 39.9337C41.4167 39.7205 41.4647 39.6983 41.4865 39.8022C41.5254 39.9876 41.2701 40.3763 41.0922 40.4018C40.9855 40.4175 40.9371 40.3878 40.9371 40.3073ZM32.855 38.8332C32.7386 38.7381 32.6055 38.6603 32.5591 38.6603C32.3969 38.6593 32.2526 38.3589 32.2982 38.1166C32.3255 37.9725 32.3076 37.8453 32.2504 37.777C32.1732 37.6844 32.1899 37.6432 32.3597 37.5086C32.477 37.4157 32.539 37.3157 32.5095 37.2676C32.4757 37.2137 32.5192 37.1859 32.6373 37.1859C32.7639 37.1859 32.8476 37.2464 32.9232 37.3922C33.0682 37.671 33.1354 37.6998 33.3648 37.5834C33.6474 37.4396 33.8784 37.5412 33.8784 37.809C33.8784 37.9705 33.7973 38.0862 33.5079 38.3386C33.1714 38.6319 33.1484 38.6701 33.2584 38.7545C33.3505 38.8251 33.3599 38.8669 33.2973 38.929C33.1792 39.0464 33.0942 39.0281 32.855 38.8332ZM38.1843 38.7685C38.1843 38.7071 38.1067 38.6217 38.0117 38.5786C37.7219 38.4475 37.6959 38.1686 37.9734 38.1686C38.0704 38.1686 38.12 38.236 38.1534 38.4141C38.1947 38.6325 38.3254 38.7672 38.3254 38.5917C38.3254 38.5537 38.4195 38.4746 38.5347 38.4154C38.6833 38.3389 38.7661 38.2258 38.8206 38.0241C38.8628 37.8678 38.9513 37.7201 39.0172 37.6956C39.0831 37.671 39.171 37.606 39.2125 37.5511C39.3099 37.4219 39.5523 37.469 39.5821 37.623C39.5974 37.7021 39.5455 37.7573 39.4277 37.7868C39.2752 37.8247 39.2473 37.876 39.2291 38.1506C39.2158 38.3494 39.1678 38.4887 39.1019 38.5197C38.3634 38.8653 38.1843 38.9137 38.1843 38.7685ZM17.1242 38.0633C17.013 38.0055 16.741 37.9581 16.5198 37.9581C16.1692 37.9581 16.0927 37.9323 15.9239 37.757C15.6446 37.467 15.5319 36.8867 15.5141 35.6471C15.5007 34.7094 15.5132 34.5793 15.6296 34.4515C15.7013 34.3727 15.7871 34.3083 15.8201 34.3083C15.8531 34.3083 16.0467 34.2276 16.2503 34.1288C16.5477 33.9847 16.6813 33.9582 16.9296 33.9941C17.3876 34.0602 17.4235 34.0844 17.6455 34.4757C17.9012 34.9259 18.334 35.3787 18.6229 35.4977C18.7445 35.5477 18.8439 35.6245 18.8439 35.6686C18.8439 35.7791 18.5682 36.0636 18.2576 36.2734C18.1148 36.3699 17.9977 36.4843 17.9974 36.5275C17.9971 36.5709 18.1399 36.6458 18.3146 36.6945C18.5384 36.757 18.6322 36.8197 18.6322 36.9077C18.6322 37.0244 18.2395 37.555 18.0352 37.7142C17.9844 37.7537 17.9308 37.8486 17.916 37.9247C17.8986 38.0146 17.8278 38.0666 17.7137 38.0732C17.6171 38.0784 17.4905 38.1019 17.4323 38.1255C17.374 38.149 17.2354 38.1212 17.1242 38.0633ZM17.6087 36.6945C17.679 36.6174 17.7206 36.5543 17.7012 36.5543C17.6818 36.5543 17.6084 36.6174 17.5381 36.6945C17.4679 36.7717 17.4263 36.8351 17.4457 36.8351C17.4651 36.8351 17.5384 36.7717 17.6087 36.6945ZM38.293 38.0329C38.2226 37.9192 38.376 37.8845 38.4672 37.9937C38.5383 38.0787 38.5337 38.0983 38.4442 38.0983C38.3835 38.0983 38.3154 38.0689 38.293 38.0329ZM28.8254 36.9901C28.9001 36.2358 28.8825 35.2381 28.79 34.9837C28.6992 34.734 28.7496 34.3783 28.8758 34.3783C28.9179 34.3783 29.0996 34.2795 29.2795 34.1589C29.4594 34.0383 29.734 33.9235 29.8897 33.9042C30.0454 33.8849 30.242 33.8065 30.3265 33.7303C30.4797 33.592 30.4816 33.592 30.9265 33.7404C31.1719 33.8222 31.4178 33.9176 31.4728 33.952C31.6265 34.0487 31.5918 34.3842 31.3958 34.6947C31.2985 34.8487 31.1988 35.054 31.1742 35.1505C31.1458 35.2619 31.0323 35.3718 30.8629 35.4516C30.4019 35.669 30.1271 35.837 29.9861 35.9874C29.9111 36.0675 29.8192 36.1332 29.7819 36.1332C29.6033 36.1332 29.7523 36.4441 30.1077 36.8125C30.6049 37.3284 30.6873 37.4667 30.4971 37.4667C30.4204 37.4667 30.338 37.435 30.314 37.3964C30.29 37.3578 30.1817 37.3261 30.0733 37.3261C29.8209 37.3261 29.4317 37.1963 29.2718 37.0587C29.159 36.9619 29.1373 36.9646 29.0446 37.0862C28.9882 37.1604 28.9411 37.2761 28.9399 37.3438C28.9385 37.4115 28.9017 37.4667 28.8579 37.4667C28.8019 37.4667 28.7922 37.3252 28.8254 36.9901ZM4.79897 36.7279C4.84807 36.669 4.90281 36.6353 4.92055 36.653C4.96952 36.7017 4.87007 36.8351 4.78476 36.8351C4.73794 36.8351 4.74329 36.7946 4.79897 36.7279ZM19.9458 36.4467C19.8267 36.328 19.7236 35.8998 19.789 35.7948C19.8118 35.7582 19.7973 35.6337 19.7568 35.5179C19.6927 35.3352 19.7239 35.2129 19.9959 34.58C20.5714 33.2406 20.5955 33.2004 20.8785 33.1075C21.0202 33.0611 21.2953 32.9493 21.49 32.8591C21.6846 32.7688 21.8791 32.6949 21.9223 32.6946C22.0951 32.693 22.5486 33.1392 22.726 33.4851C22.8294 33.6868 22.9808 33.9595 23.0625 34.0909L23.2108 34.3299L23.0319 34.7928C22.9335 35.0475 22.8238 35.3558 22.7879 35.4777C22.7498 35.6078 22.5429 35.8654 22.2881 36.1002L21.8533 36.5003L21.4822 36.4568C21.2616 36.4313 21.0934 36.4421 21.0675 36.484C20.9945 36.6013 20.0706 36.5706 19.9458 36.4467ZM27.975 36.1155C27.9377 36.0286 27.9088 35.6268 27.9107 35.2224L27.9141 34.4871L28.1086 34.4191C28.3939 34.3191 28.4983 34.4459 28.3857 34.7559C28.3156 34.9484 28.3192 35.0674 28.4051 35.3953C28.5139 35.8112 28.4908 35.9357 28.2625 36.1626C28.1125 36.3117 28.0551 36.3025 27.975 36.1155ZM11.9643 35.9263C11.939 35.8857 11.8447 35.8524 11.7546 35.8524C11.4136 35.8524 11.2962 35.4287 11.4299 34.6803C11.5566 33.9713 11.6261 33.7901 11.8565 33.5708C12.06 33.3769 12.069 33.3749 12.2077 33.4998C12.3346 33.6139 12.3493 33.7094 12.3425 34.3717C12.3311 35.4816 12.2681 35.9518 12.1273 35.9782C12.063 35.9907 11.9897 35.9671 11.9643 35.9263ZM35.1238 35.3826C35.0654 35.3244 35.0725 34.7735 35.1364 34.4136C35.1747 34.1978 35.2218 34.1275 35.3396 34.1108C35.4642 34.0932 35.507 34.1393 35.5677 34.3564C35.6864 34.782 35.6611 35.0396 35.4843 35.1979C35.2718 35.3881 35.1777 35.4362 35.1238 35.3826ZM10.0316 33.9147C9.89737 33.8212 9.87647 33.7584 9.90902 33.5462C9.96888 33.1556 9.86528 32.7956 9.69863 32.8149C9.62351 32.8237 9.45351 32.8394 9.32084 32.8499C9.17041 32.862 9.00648 32.9418 8.88513 33.0624C8.72882 33.2174 8.62616 33.2553 8.36288 33.2553C8.01679 33.2553 7.73203 33.15 7.79673 33.0457C7.81795 33.0117 7.94589 33.0016 8.08104 33.0235C8.26868 33.0536 8.3268 33.0385 8.3268 32.9594C8.3268 32.8287 8.10307 32.6236 7.9602 32.6236C7.74371 32.6236 7.47689 32.3234 7.22367 31.7948C6.94773 31.2188 6.73841 30.277 6.81213 29.9432C6.83601 29.8352 7.00799 29.4678 7.19434 29.1268C7.38065 28.7858 7.55603 28.4302 7.58407 28.3367C7.65792 28.0904 8.40315 26.7014 8.49189 26.6447C8.5332 26.6183 8.79881 26.5751 9.08218 26.5487C9.61264 26.4993 9.68071 26.4444 9.48213 26.2262C9.37428 26.1077 9.37908 26.095 9.55731 26.0276C9.76972 25.9473 10.162 25.9305 10.162 26.0017C10.162 26.027 10.0876 26.1455 9.99663 26.2649C9.85311 26.4534 9.83559 26.5401 9.86395 26.9208C9.88192 27.1621 9.92144 27.3595 9.95172 27.3595C9.98203 27.3595 10.1716 27.2836 10.373 27.1908C10.6761 27.0511 10.8054 26.9274 11.1237 26.4727C11.3352 26.1705 11.5627 25.8935 11.6292 25.857C11.6958 25.8206 11.9636 25.6219 12.2246 25.4156C12.4854 25.2094 12.8031 25.021 12.9304 24.9971C13.0577 24.9733 13.2193 24.9041 13.2896 24.8435C13.4327 24.7199 14.1394 24.4843 14.3719 24.4828C14.5722 24.4814 14.6089 24.5999 14.6089 25.2489C14.6089 25.7248 14.6442 25.878 14.8865 26.4539L15.1642 27.1138L15.5747 27.1676C15.8924 27.2092 16.0571 27.1942 16.3029 27.101C16.6615 26.9652 17.4726 26.9655 17.6347 27.1016C17.6887 27.1469 17.9273 27.233 18.1649 27.2929C18.5693 27.3948 18.5972 27.415 18.6017 27.6087C18.6077 27.864 18.6931 28.1316 18.7687 28.1316C18.7997 28.1316 18.8653 27.7848 18.9144 27.361C18.9635 26.9372 19.0324 26.6081 19.0675 26.6297C19.1373 26.6727 19.0758 28.1728 18.99 28.5176C18.9612 28.6334 18.9641 28.8229 18.9964 28.9387C19.0296 29.0582 19.0265 29.2322 18.989 29.3408C18.9524 29.447 18.9501 29.5489 18.9839 29.5697C19.1239 29.6557 19.1401 30.0422 19.0135 30.276C18.8905 30.5031 18.8906 30.5157 19.0172 30.6548C19.1438 30.794 19.1439 30.8034 19.0199 30.9397C18.9026 31.0686 18.8811 31.0711 18.7689 30.9702C18.6556 30.8682 18.6285 30.8817 18.4131 31.1483C18.2849 31.307 18.0082 31.5774 17.7982 31.7493L17.4165 32.0618L16.8068 32.0196C16.4714 31.9963 16.0151 31.9377 15.7928 31.8892C15.4526 31.8149 15.3658 31.8169 15.2442 31.9015C14.9928 32.0766 14.2505 32.2329 14.1036 32.1417C13.9028 32.017 13.8324 32.0466 13.8324 32.2556C13.8324 32.4175 13.7895 32.4623 13.5686 32.5311C13.2728 32.6231 13.1266 32.5569 13.1266 32.3307C13.1266 32.2562 13.0645 32.0784 12.9885 31.9357C12.8486 31.6726 12.5589 30.95 12.1138 29.7543C11.8347 29.0044 11.8339 29.011 12.3074 28.0762C12.5263 27.6439 12.5661 27.4918 12.5804 27.0334C12.5999 26.4099 12.522 26.3243 12.2536 26.6743C12.1075 26.8648 12.0643 27.0209 12.0242 27.5028C11.9875 27.9432 11.9332 28.1599 11.8138 28.3422C11.7253 28.4772 11.6304 28.6826 11.603 28.7984C11.5756 28.9142 11.4981 29.0879 11.4309 29.1844C11.3637 29.2809 11.2215 29.5771 11.115 29.8427C10.9308 30.3023 10.9237 30.3632 10.9685 31.1061C10.9944 31.5354 11.0493 31.9727 11.0907 32.0779C11.1555 32.2428 11.1402 32.2994 10.9796 32.4892C10.7993 32.7021 10.7949 32.7289 10.8408 33.3331C10.8918 34.0062 10.8662 34.0513 10.5662 33.8169C10.3317 33.6335 10.2912 33.6398 10.3448 33.8519C10.3975 34.0608 10.2763 34.085 10.0316 33.9147ZM32.6214 33.3465C32.148 33.0085 31.9706 32.7734 31.532 31.9036C31.2643 31.3723 31.0306 31.1496 30.741 31.1496C30.6289 31.1496 30.6071 31.0868 30.628 30.8231C30.6346 30.7401 30.5724 30.451 30.4899 30.1808L30.3398 29.6895L30.6445 29.0532C30.8467 28.6311 30.989 28.4161 31.0673 28.4146C31.2616 28.4108 31.6461 28.928 31.7778 29.3705C31.9497 29.9476 32.3669 30.7045 32.5374 30.7489C32.6146 30.7689 32.6938 30.8358 32.7136 30.8973C32.8304 31.2643 32.8245 31.2557 32.8894 31.151C32.9238 31.096 32.9339 30.9627 32.9122 30.8548C32.8706 30.6475 32.9835 30.4478 33.1425 30.4478C33.1941 30.4478 33.4303 30.7241 33.6675 31.0619L34.0984 31.6761L33.5296 31.6965C32.9874 31.7159 32.9608 31.7244 32.9608 31.88C32.9608 31.9698 33.0244 32.1235 33.102 32.2217C33.1798 32.3198 33.2431 32.4272 33.2431 32.4603C33.2431 32.4934 33.3083 32.6412 33.3878 32.7888C33.5274 33.0474 33.528 33.0686 33.4138 33.3668C33.3382 33.5629 33.2529 33.6744 33.1808 33.6705C33.1182 33.6672 32.8664 33.5214 32.6214 33.3465ZM38.2096 33.3949C38.0876 33.3681 37.9286 33.3203 37.8565 33.2883C37.7845 33.2566 37.4918 33.2246 37.2066 33.2174C36.6913 33.2043 36.6855 33.2023 36.3662 32.8846L36.0443 32.5646L36.1968 32.2126C36.385 31.7772 36.3873 31.5947 36.2079 31.3251C36.1306 31.2093 36.0674 31.0669 36.0671 31.0086C36.0667 30.9504 36.0067 30.8654 35.933 30.8197C35.8276 30.7543 35.7909 30.6217 35.7581 30.1887C35.7351 29.8873 35.692 29.4615 35.6621 29.2427L35.6079 28.8448L35.1303 28.5935C34.8678 28.4552 34.6098 28.3421 34.5573 28.3421C34.4161 28.3421 34.3665 28.8687 34.4781 29.1829C34.6368 29.6301 34.6316 29.8585 34.4576 30.0926C34.1779 30.4686 33.9966 30.366 33.8395 29.7432C33.7766 29.4937 33.6442 29.171 33.5449 29.0261C33.3875 28.796 33.37 28.713 33.4054 28.372C33.4277 28.1572 33.4754 27.9442 33.5115 27.8986C33.5475 27.853 33.5971 27.5314 33.6218 27.184C33.6812 26.3472 33.7182 26.2256 33.9051 26.2511C34.0112 26.2655 34.0456 26.2406 34.0222 26.1662C34.0043 26.1083 33.9884 25.8872 33.9871 25.6749L33.9842 25.2889L34.3019 25.2538C34.5611 25.2251 34.6238 25.1905 34.6416 25.0659C34.6799 24.7982 34.8201 24.744 35.3052 24.8089L35.7491 24.8683L35.7289 25.1137C35.7182 25.2486 35.6916 25.5218 35.6699 25.7208C35.6475 25.9296 35.6637 26.1439 35.7088 26.2277C35.7539 26.3114 36.2121 26.5833 36.7916 26.8703C37.3439 27.144 37.8358 27.4194 37.8841 27.4823C37.9403 27.5552 37.9724 27.8363 37.9724 28.2548C37.9724 28.9218 38.0409 29.1844 38.2144 29.1844C38.342 29.1844 38.3958 29.0272 38.3958 28.6568C38.3958 28.4887 38.4263 28.2718 38.4633 28.1747C38.5272 28.0077 38.5577 27.9987 39.0318 28.0075C39.3073 28.0125 39.5529 28.0489 39.5773 28.0884C39.6227 28.1613 39.7479 28.784 39.8823 29.6055C40.0007 30.3312 40.3719 31.4532 40.6623 31.9654C40.7746 32.1631 40.8664 32.3416 40.8664 32.3621C40.8664 32.4061 40.3567 32.2573 40.0546 32.1251C39.9381 32.0741 39.6444 31.8969 39.402 31.7314C38.9731 31.4386 38.8232 31.3751 38.8157 31.483C38.8141 31.512 38.8027 31.741 38.7914 31.9919C38.7635 32.6045 38.6797 33.0264 38.5675 33.119C38.5165 33.1611 38.4909 33.2373 38.5107 33.2883C38.561 33.4188 38.4682 33.4514 38.2096 33.3949ZM38.8196 31.1204C38.8196 30.9806 38.5224 30.4486 38.4643 30.4843C38.3809 30.5356 38.4357 30.7558 38.5908 30.9917C38.681 31.1289 38.8196 31.2068 38.8196 31.1204ZM28.9432 32.7133C28.865 32.5424 28.8727 32.508 29.0148 32.3937L29.174 32.2655L29.0229 31.9562C28.8829 31.6696 28.8794 31.6286 28.9762 31.3983C29.0337 31.2615 29.126 31.1496 29.1814 31.1496C29.343 31.1496 29.3516 31.0723 29.2461 30.566L29.1465 30.0877L29.469 29.7237C29.7104 29.4514 29.7837 29.317 29.7602 29.1897C29.7169 28.9545 29.8948 28.4872 30.1143 28.2594C30.2341 28.1351 30.2844 28.0204 30.26 27.9276C30.2163 27.7613 30.3153 27.6632 30.561 27.6294C30.707 27.6093 30.7412 27.5615 30.7588 27.3533C30.7704 27.2147 30.7337 26.9678 30.6771 26.8045C30.5908 26.5555 30.5898 26.5018 30.6707 26.4709C30.804 26.4201 31.2839 26.5799 31.3874 26.7097C31.493 26.8421 31.3557 27.1445 31.0393 27.4762C30.9228 27.5983 30.8466 27.729 30.8699 27.7664C30.9184 27.8445 30.7838 28.2719 30.7107 28.2719C30.6842 28.2719 30.6204 28.4135 30.569 28.5866C30.5008 28.8163 30.4105 28.9413 30.2344 29.0495C30.0014 29.1927 29.9948 29.2088 30.0377 29.5305C30.0744 29.8056 30.0385 29.9841 29.8298 30.5608C29.6066 31.1779 29.5786 31.3303 29.5867 31.8835L29.5959 32.5088L29.3577 32.7067C29.2266 32.8153 29.0995 32.9045 29.0751 32.9045C29.0508 32.9045 28.9914 32.8182 28.9432 32.7133ZM20.9338 32.3722C20.9102 32.3112 20.8878 32.0506 20.8839 31.7932C20.8715 30.9687 20.8766 30.9746 20.1672 30.9717C19.8314 30.9704 19.5347 30.9474 19.5079 30.9208C19.4386 30.8519 19.6083 30.6682 19.8614 30.538C20.063 30.4343 20.0685 30.4217 19.9428 30.3496C19.8686 30.3071 19.6855 30.1652 19.5358 30.0343C19.2834 29.8135 19.2718 29.7873 19.3759 29.6728C19.4377 29.605 19.5327 29.3804 19.5871 29.1739C19.7174 28.6788 19.8996 28.5357 20.6327 28.3529C21.522 28.1311 21.6686 28.1452 21.9379 28.4784C22.0609 28.6305 22.1614 28.7814 22.1614 28.8137C22.1614 28.8459 22.2806 29.0302 22.4262 29.2232C22.5717 29.4162 22.7688 29.7207 22.8641 29.8999L23.0374 30.2257L22.8465 30.601C22.7414 30.8073 22.6556 31.078 22.6556 31.2024C22.6556 31.3949 22.6185 31.4439 22.4062 31.5321C22.269 31.5891 21.9221 31.8264 21.6353 32.0595C21.0789 32.5116 21.0009 32.5463 20.9338 32.3722ZM24.4133 31.5883C24.2891 31.2644 24.2609 31.0287 24.3404 30.9798C24.4483 30.9135 24.8245 31.1232 24.9217 31.3039C24.9934 31.437 24.9778 31.4773 24.8003 31.6186C24.5402 31.8256 24.5031 31.8226 24.4133 31.5883ZM32.5383 29.7587C32.2727 29.6267 32.0857 29.4689 31.939 29.2528L31.7257 28.9387L31.7238 27.8157C31.722 26.7302 31.7155 26.6806 31.5297 26.3315C31.424 26.1329 31.3375 25.8972 31.3375 25.8078C31.3375 25.6504 31.8595 25.0432 31.9948 25.0432C32.0773 25.0432 32.9748 25.9392 33.1195 26.1662C33.2619 26.3894 33.3018 27.0632 33.185 27.2725C33.136 27.3598 33.1046 27.4704 33.1149 27.5182C33.125 27.566 33.0965 27.7473 33.0514 27.921C32.9131 28.452 32.8813 29.0491 32.9706 29.4453C33.0225 29.6753 33.0299 29.8459 32.9897 29.8857C32.9498 29.9254 32.7749 29.8762 32.5383 29.7587ZM22.5597 29.0264C22.5052 28.9396 22.4403 28.7815 22.4155 28.6753C22.3745 28.4997 22.3997 28.4679 22.6896 28.3278L23.0088 28.1736L23.291 28.4476C23.4462 28.5982 23.5731 28.7437 23.5731 28.7708C23.5731 28.8536 22.9575 29.1844 22.8034 29.1844C22.7239 29.1844 22.6142 29.1133 22.5597 29.0264ZM18.2515 26.8975C18.228 26.8365 18.2087 26.6791 18.2087 26.5478C18.2087 26.1899 18.0726 25.3319 17.9575 24.9636C17.9015 24.7847 17.8558 24.5388 17.8558 24.4172C17.8558 24.181 17.7268 23.9333 17.4415 23.6219C17.3442 23.5158 17.3005 23.4289 17.3443 23.4289C17.3881 23.4289 17.4413 23.4568 17.4625 23.4909C17.4837 23.525 17.6444 23.62 17.8196 23.7018C18.1126 23.8388 18.1384 23.8718 18.1412 24.1136C18.1429 24.2582 18.1776 24.5186 18.2184 24.6923C18.3766 25.3659 18.4809 27.0085 18.3654 27.0085C18.3263 27.0085 18.2751 26.9586 18.2515 26.8975ZM16.4144 25.7127C16.3583 25.5791 16.2906 25.3255 16.264 25.1493C16.2342 24.9516 16.168 24.8034 16.0913 24.7626C15.9528 24.6888 15.7748 24.2905 15.6673 23.8134C15.6042 23.5334 15.6162 23.4627 15.7776 23.1657C15.8772 22.9823 16.0759 22.6794 16.219 22.4925C16.3622 22.3056 16.6244 21.9582 16.8016 21.7204C17.1792 21.2139 17.5697 20.9624 17.8876 21.0212C18.1965 21.0784 18.2307 21.135 18.1181 21.4029C17.9858 21.7178 17.8984 22.3059 17.984 22.3059C18.0204 22.3059 18.0909 22.2571 18.1406 22.1976C18.2868 22.0224 18.4266 22.1083 18.5584 22.454C18.6658 22.7361 18.6691 22.8015 18.5841 22.9629C18.4679 23.1835 18.2788 23.2011 18.1028 23.0078C17.9352 22.8236 17.8955 22.8302 17.7903 23.0597C17.7041 23.2479 17.6999 23.249 17.5981 23.1123C17.4943 22.9729 17.4939 22.9729 17.3958 23.1131C17.3418 23.1903 17.2357 23.3167 17.1601 23.3939C17.0845 23.4711 16.9651 23.7189 16.8948 23.9446C16.7682 24.3508 16.7685 24.3596 16.9231 24.8C17.0091 25.0448 17.0793 25.282 17.0793 25.3271C17.0793 25.4327 16.6641 25.9558 16.5803 25.9558C16.5452 25.9558 16.4706 25.8464 16.4144 25.7127ZM33.1503 24.7935C33.1279 24.6562 33.1276 24.4971 33.1497 24.44C33.2052 24.2958 33.5764 24.1122 33.6315 24.2014C33.6958 24.3043 33.5897 24.9293 33.4982 24.9895C33.3145 25.1103 33.1909 25.0405 33.1503 24.7935ZM31.3375 23.7747L31.0904 23.5648L31.081 22.8476C31.0755 22.4241 31.0252 21.9723 30.9583 21.7444C30.896 21.532 30.8447 21.3197 30.8442 21.2724C30.8429 21.1446 31.2668 20.9441 31.3542 21.031C31.3933 21.0699 31.4685 21.3912 31.5214 21.745C31.6056 22.3084 31.6045 22.4013 31.5122 22.4931C31.4028 22.6019 31.4303 22.727 31.5636 22.727C31.6377 22.727 31.7078 22.6693 32.138 22.2544L32.3386 22.061L32.5085 22.2575C32.7642 22.5531 32.7249 22.7052 32.2892 23.1059C32.0292 23.345 31.8757 23.5514 31.8271 23.7272C31.7398 24.0429 31.6619 24.0504 31.3375 23.7747ZM19.3629 23.1167C19.1285 22.9597 18.9738 22.7956 18.9227 22.6499C18.8268 22.3765 18.8177 21.2774 18.9109 21.2202C18.9476 21.1976 19.0584 20.9162 19.1569 20.5949C19.3289 20.0343 19.6309 19.4032 19.7672 19.3193C19.8029 19.2974 19.8311 19.226 19.8299 19.1608C19.8278 19.0513 19.8204 19.0516 19.7339 19.1649C19.5984 19.3424 19.488 19.316 19.4404 19.0947C19.4175 18.9886 19.3472 18.7596 19.2842 18.5859C19.1984 18.3495 19.174 18.0669 19.1872 17.4628L19.2048 16.6556L18.9024 16.0384C18.631 15.4841 18.5819 15.4232 18.4222 15.4418C18.2955 15.4565 18.2085 15.5382 18.12 15.7256C17.8967 16.199 17.8194 16.0663 17.8231 15.2156C17.8266 14.3987 17.9083 14.1644 18.1903 14.1636C18.2587 14.1634 18.4099 14.0846 18.5263 13.9884C18.7257 13.8238 18.7307 13.8079 18.6113 13.7154C18.5415 13.6615 18.4224 13.6334 18.3466 13.6531C18.1435 13.7059 18.1673 13.4517 18.4028 13.0534C18.5755 12.7613 18.597 12.6554 18.5976 12.0934C18.598 11.7162 18.6375 11.3685 18.6957 11.2304C18.7738 11.0451 18.7761 10.962 18.7074 10.8121C18.6372 10.6588 18.6401 10.6117 18.7236 10.5511C18.7796 10.5103 18.8491 10.3669 18.8781 10.2324C18.9071 10.0978 18.9639 9.94689 19.0044 9.897C19.0559 9.83344 19.0535 9.78195 18.9963 9.72504C18.8699 9.59943 18.8968 9.50597 19.1263 9.27251C19.2428 9.15403 19.3849 8.94565 19.4422 8.80946C19.4994 8.67326 19.6282 8.49774 19.7283 8.4194C19.9419 8.25235 20.8078 7.95138 20.8769 8.02017C20.9031 8.04619 20.9249 8.35739 20.9253 8.71174C20.9261 9.28052 20.8988 9.42276 20.6926 9.9258L20.459 10.4956L19.8633 10.7596C19.5356 10.9048 19.2675 11.0515 19.2675 11.0857C19.2675 11.1198 19.2982 11.2026 19.3358 11.2696C19.4321 11.4414 19.6638 12.325 19.8187 13.1111C19.9246 13.6485 19.9375 13.8802 19.8854 14.3044C19.8016 14.9852 19.8046 15.0343 19.9818 15.875C20.2006 16.9135 20.2051 16.9485 20.156 17.209C20.1261 17.3676 20.0628 17.4599 19.9667 17.4849C19.8514 17.5149 19.8269 17.5693 19.8449 17.7558C19.8631 17.9439 19.9017 17.994 20.0439 18.0135C20.2986 18.0486 20.3968 18.1534 20.3968 18.3905C20.3968 18.5322 20.3561 18.6096 20.2698 18.632C20.1243 18.6698 19.9405 18.9277 20.0101 18.9963C20.0356 19.0215 20.1264 18.9552 20.2117 18.8491C20.2983 18.7413 20.4371 18.656 20.5258 18.656C20.7439 18.656 21.2164 18.9047 21.272 19.0488C21.3693 19.3011 21.46 20.5405 21.4152 21.0074C21.3374 21.8182 21.1764 22.1229 20.4806 22.7764C20.1434 23.0931 19.8353 23.3537 19.7959 23.3555C19.7566 23.3573 19.5617 23.2498 19.3629 23.1167ZM15.1811 21.6249C15.2079 21.3239 15.2542 20.9828 15.284 20.867C15.3443 20.633 15.803 20.048 15.8861 20.0991C16.0225 20.1829 16.0276 20.5586 15.8952 20.7794C15.8201 20.9048 15.7198 21.1495 15.6725 21.3232C15.6251 21.4969 15.4842 21.759 15.3594 21.9057L15.1325 22.1723L15.1811 21.6249ZM30.3915 19.7274C30.2929 19.6294 30.357 19.2324 30.4909 19.1119C30.6816 18.9402 30.7283 19.0103 30.672 19.3836C30.6289 19.6695 30.4965 19.8319 30.3915 19.7274ZM17.8792 19.479C17.539 19.0937 17.5339 19.001 17.8274 18.5447C18.0684 18.1701 18.0941 18.1504 18.1832 18.2715C18.3 18.4302 18.301 19.0751 18.1852 19.4568L18.1019 19.7312L17.8792 19.479ZM16.2006 19.404C16.1016 19.2748 16.0206 19.1376 16.0206 19.099C16.0206 19.0082 16.2556 18.7964 16.3564 18.7964C16.4691 18.7964 16.7536 19.3969 16.703 19.5278C16.6319 19.7121 16.3915 19.6528 16.2006 19.404ZM29.4317 19.5605C29.4317 19.4437 29.7309 18.9368 29.7998 18.9368C29.9479 18.9368 29.9217 19.162 29.7472 19.3896C29.5555 19.6394 29.4317 19.7065 29.4317 19.5605ZM28.1637 19.4312C28.0212 19.3415 28.1382 19.0294 28.3821 18.8488C28.5198 18.7469 28.6247 18.7238 28.788 18.7595C29.1677 18.8424 29.0541 19.1233 28.5352 19.3846C28.272 19.5171 28.2956 19.5142 28.1637 19.4312ZM16.8305 19.0035C16.6789 18.712 16.7922 18.3795 17.044 18.3766C17.0829 18.3761 17.1753 18.5225 17.2494 18.7017C17.3805 19.0185 17.3806 19.0302 17.2536 19.1226C17.0549 19.267 16.9526 19.2383 16.8305 19.0035ZM27.4664 18.9704C27.3494 18.8725 27.1988 18.6494 27.1316 18.4746C27.0198 18.1835 27.019 18.1473 27.1223 18.0446C27.2256 17.9419 27.2501 17.9422 27.4133 18.0486C27.5113 18.1125 27.6202 18.22 27.6553 18.2875C27.744 18.4585 27.8032 19.072 27.7351 19.1138C27.7042 19.1328 27.5833 19.0682 27.4664 18.9704ZM30.3514 18.2174C30.2345 18.0147 30.1386 17.816 30.1382 17.7757C30.1379 17.7355 29.9946 17.5631 29.8199 17.3927C29.6452 17.2222 29.5023 17.0234 29.5023 16.951C29.5023 16.7812 29.5459 16.8006 30.0571 17.1969C30.4954 17.5367 30.5441 17.6271 30.6635 18.3227C30.7277 18.6968 30.6038 18.655 30.3514 18.2174ZM24.0483 18.3221C23.9916 18.2113 24.0464 16.4032 24.1079 16.349C24.1438 16.3174 24.3478 16.2384 24.5613 16.1732C24.7749 16.1081 25.2325 15.9057 25.5783 15.7235C26.0819 15.4583 26.2536 15.3251 26.4404 15.0549C26.7108 14.664 26.7035 14.4094 26.412 14.0603C26.2497 13.866 26.24 13.8112 26.2732 13.2818C26.3124 12.658 26.3766 12.4871 26.6995 12.1478C26.8942 11.9432 26.9067 11.9036 26.8296 11.7354C26.765 11.5942 26.7637 11.4912 26.8242 11.3087C26.9662 10.8809 26.8791 10.7538 26.2364 10.4515C25.6076 10.1557 25.5304 10.0884 25.2398 9.58233C25.1026 9.34339 25.0435 9.13504 25.0338 8.85666L25.0202 8.46619L25.0619 8.16362C25.1059 7.84382 25.3334 7.82241 25.4704 7.83281L25.7613 7.85484L26.0937 8.00104C26.2764 8.08143 26.6056 8.29011 26.825 8.46475L27.2241 8.78226L27.2684 9.40282C27.2929 9.74697 27.3781 10.203 27.4597 10.4267C27.5405 10.6485 27.6141 10.9773 27.6232 11.1574C27.6323 11.3374 27.6799 11.5329 27.729 11.5916C27.79 11.6647 27.8028 11.8009 27.7695 12.0216C27.7304 12.2813 27.7459 12.3722 27.849 12.4854C27.9731 12.6218 27.9718 12.653 27.81 13.4534C27.718 13.9083 27.6634 14.3339 27.6885 14.3991C27.7137 14.4643 27.8462 14.5833 27.983 14.6636C28.1512 14.7623 28.2318 14.861 28.2318 14.9685C28.2318 15.1483 27.9411 15.4686 27.7129 15.5402C27.6295 15.5664 27.4262 15.6977 27.2612 15.8319C27.0139 16.0332 26.9613 16.1184 26.9613 16.3178C26.9613 16.6521 26.8618 16.8053 26.6125 16.8549C26.4957 16.8781 26.0048 17.1646 25.5218 17.4915C24.576 18.1315 24.0907 18.4051 24.0483 18.3221ZM21.5713 18.0456C21.2421 17.9334 20.916 17.7108 20.8202 17.5328C20.7673 17.4345 20.7966 17.2914 20.9377 16.9586C21.2228 16.2864 21.2461 16.2742 21.6073 16.6064C21.7762 16.7618 21.9686 16.9811 22.0349 17.0938C22.1517 17.2925 22.1501 17.3065 21.9819 17.5526C21.7794 17.8489 21.7723 17.884 21.9144 17.884C22.0422 17.884 22.0565 18.0674 21.932 18.109C21.8835 18.1251 21.7212 18.0966 21.5713 18.0456ZM17.0182 17.827C16.8354 17.5717 16.831 17.4679 16.9911 17.1882C17.1915 16.8382 17.2912 16.9122 17.29 17.4102C17.2886 17.9908 17.2156 18.1027 17.0182 17.827ZM18.1481 17.1401C17.969 16.5675 17.9994 16.4336 18.277 16.5712C18.4063 16.6353 18.4744 16.7579 18.5485 17.0597C18.6582 17.5067 18.6288 17.6736 18.4403 17.6729C18.3455 17.6726 18.2736 17.5413 18.1481 17.1401ZM27.3142 17.1854C27.3142 16.8448 27.4343 16.5665 27.6045 16.5127C27.7722 16.4598 28.0383 16.6026 27.9755 16.7118C27.8293 16.9657 27.4342 17.4628 27.3787 17.4628C27.3432 17.4628 27.3142 17.338 27.3142 17.1854ZM24.2923 15.7756C24.2073 15.6968 24.1378 15.6038 24.1378 15.5689C24.1378 15.4165 24.6347 14.4392 24.7309 14.4026C24.8564 14.3547 25.4584 14.8313 25.5213 15.0284C25.5946 15.2579 24.8412 15.9187 24.5063 15.9187C24.4736 15.9187 24.3773 15.8543 24.2923 15.7756ZM22.3109 15.2859C22.0869 14.923 22.1343 14.8308 22.5448 14.8308C22.7351 14.8308 22.9021 14.8642 22.9158 14.9052C22.9295 14.9461 22.833 15.1035 22.7013 15.255L22.4618 15.5304L22.3109 15.2859ZM22.1275 14.0257C22.0631 13.922 22.058 12.6993 22.1218 12.6359C22.1492 12.6085 22.3282 12.7493 22.5195 12.9487C22.831 13.2734 22.8673 13.3443 22.8673 13.6282C22.8673 13.8025 22.8435 13.9591 22.8144 13.9762C22.6696 14.0614 22.172 14.0973 22.1275 14.0257ZM19.6191 6.33533L19.3849 5.87656L19.527 5.68607C19.7415 5.39863 20.4496 5.16577 21.0945 5.17064C21.4432 5.17325 21.6645 5.14056 21.7631 5.07188C21.9917 4.91263 22.2057 4.94813 22.625 5.21487C22.8374 5.34999 23.0571 5.46052 23.1133 5.46052C23.1694 5.46052 23.3196 5.37215 23.4472 5.26417C23.5747 5.15616 23.8143 4.96379 23.9796 4.83669L24.2801 4.60559L24.5796 4.78611C24.9049 4.9823 25.1966 5.21419 25.1966 5.27663C25.1966 5.29824 25.0457 5.3595 24.8613 5.41282C24.5681 5.49759 24.4622 5.58815 24.0171 6.13438C23.7371 6.47794 23.4834 6.74324 23.4532 6.72392C23.423 6.70463 23.3471 6.53819 23.2844 6.35403C23.2217 6.16991 23.15 5.999 23.1251 5.97422C23.1002 5.94943 22.9244 6.01322 22.7346 6.11597C22.1703 6.42138 22.0544 6.37306 21.7095 5.68865C21.5083 5.28941 21.4063 5.24318 21.208 5.46114C21.1374 5.53866 20.9532 5.63981 20.7986 5.68587C20.5633 5.75596 20.4946 5.82161 20.3769 6.08883C20.2167 6.45277 19.99 6.79411 19.9085 6.79411C19.8781 6.79411 19.7479 6.58765 19.6191 6.33533ZM19.417 4.17209C19.1242 3.8212 19.922 3.07318 20.5871 3.07506C20.9814 3.07617 21.2439 3.13483 21.2439 3.22188C21.2439 3.25555 21.0211 3.44419 20.7489 3.6411C20.4766 3.838 20.2214 4.05946 20.1817 4.13321C20.0944 4.29553 19.5434 4.32352 19.417 4.17209ZM23.7912 4.05217C23.5166 3.77916 23.4124 3.43599 23.5543 3.27223C23.7841 3.00705 24.5644 3.06266 24.4587 3.3367C24.435 3.398 24.4 3.60527 24.3807 3.7973C24.3615 3.98934 24.3289 4.17365 24.3082 4.20687C24.2317 4.33002 24.0012 4.26104 23.7912 4.05217ZM22.943 2.91074C22.8484 2.81665 22.8447 2.47523 22.9364 2.30479C22.9744 2.23418 23.0262 1.99147 23.0514 1.76544C23.0775 1.53237 23.1507 1.2937 23.2206 1.21409C23.2884 1.13688 23.4085 0.899997 23.4875 0.687674L23.6312 0.301636L23.9561 0.313083C24.1635 0.320391 24.3962 0.391671 24.5996 0.510201L24.9182 0.69587L24.7711 0.884792C24.6902 0.988698 24.5533 1.1838 24.467 1.31835C24.3807 1.4529 24.239 1.59823 24.1521 1.6413C23.8993 1.76662 23.8934 1.79962 24.0915 1.98212C24.3283 2.20042 24.3271 2.30012 24.0846 2.53111C23.8458 2.75868 23.0546 3.02175 22.943 2.91074ZM23.7894 1.44221C23.7918 1.39395 23.8041 1.25182 23.8165 1.12636C23.8289 1.00089 23.811 0.898242 23.7767 0.898242C23.7424 0.898242 23.6905 0.898853 23.6614 0.899569C23.5671 0.901956 23.507 1.26665 23.5789 1.4002C23.6585 1.54819 23.7827 1.57297 23.7894 1.44221Z" fill="#FEFEFE"/>
<path d="M19.3779 3.04839C19.2954 2.98944 19.2596 2.92089 19.2597 2.82228C19.2599 2.70973 19.2818 2.54746 19.3022 2.50826C19.3124 2.48868 19.3296 2.43008 19.3404 2.37806C19.369 2.24057 19.4756 2.00822 19.5512 1.91858C19.5855 1.87793 19.6542 1.79141 19.7039 1.72631C19.8212 1.57243 19.8758 1.5206 20.0818 1.36753C20.3084 1.19919 20.5272 1.08965 20.7712 1.02232C20.8686 0.995447 21.0052 0.953235 21.0748 0.92851C21.3465 0.83196 21.6626 0.789944 22.0677 0.796548C22.317 0.800611 22.3439 0.803236 22.3908 0.828083C22.49 0.880606 22.5912 1.01536 22.6295 1.14574C22.6531 1.2262 22.6582 1.68296 22.6367 1.7999C22.6297 1.83836 22.6158 1.92926 22.606 2.0019C22.5593 2.34521 22.4133 2.57437 22.1815 2.66814C22.1433 2.68362 22.1006 2.70138 22.0867 2.70761C22.0728 2.71384 22.0311 2.72452 21.994 2.73133C21.9569 2.73814 21.9205 2.7475 21.913 2.75211C21.9054 2.75673 21.6426 2.75954 21.3289 2.75836C21.0079 2.75714 20.7115 2.76178 20.651 2.76895C20.5919 2.77596 20.4723 2.78976 20.3854 2.79964C20.1014 2.83189 19.8291 2.91801 19.6625 3.02829C19.5306 3.11557 19.4772 3.11934 19.3779 3.04839Z" fill="#FEFEFE"/>
<path d="M23.0885 5.07652C23.0087 5.06491 22.8449 4.96814 22.6769 4.83322C22.5211 4.70817 22.4551 4.67012 22.3419 4.64008C22.2803 4.6237 22.2495 4.62203 22.0327 4.62321L21.7919 4.62455L21.733 4.64995C21.6536 4.68428 21.4905 4.7357 21.3754 4.76274C21.3234 4.77496 21.2642 4.79229 21.2438 4.80128C21.1934 4.82345 21.1094 4.84133 20.9504 4.86379C20.877 4.87415 20.8131 4.88497 20.8084 4.88785C20.7785 4.90626 20.6385 4.91881 20.4111 4.92352L20.1587 4.92872L20.0891 4.9042C19.9988 4.87232 19.8901 4.81779 19.8676 4.79304C19.8579 4.78229 19.8307 4.7595 19.8073 4.74237C19.7719 4.71658 19.7646 4.70644 19.7646 4.683C19.7646 4.64907 19.779 4.63873 19.8614 4.61337C19.9139 4.59722 19.9342 4.59574 20.0298 4.60117C20.1542 4.6082 20.1596 4.6067 20.3708 4.50744C20.4728 4.45958 20.513 4.43268 20.6555 4.31698C20.6756 4.3006 20.7388 4.22949 20.7958 4.15898C20.9074 4.02105 20.9671 3.96178 21.082 3.87478C21.1223 3.84428 21.1875 3.78965 21.2269 3.75343C21.3663 3.62511 21.7587 3.34311 21.7977 3.34311C21.8069 3.34311 21.8493 3.33131 21.8919 3.31685C21.9439 3.29927 22.0031 3.28743 22.0722 3.28089C22.1288 3.2755 22.2012 3.26738 22.2332 3.26281C22.3419 3.24728 22.4549 3.25232 22.5194 3.2756C22.6079 3.3075 22.7192 3.35475 22.7436 3.37073C22.7556 3.37858 22.8123 3.40741 22.8696 3.43481C22.9584 3.47724 22.9861 3.49601 23.0574 3.56192C23.1461 3.64394 23.1648 3.66875 23.2284 3.78965C23.2504 3.83153 23.2957 3.90473 23.3291 3.95233C23.3962 4.04795 23.4484 4.16748 23.4709 4.27696C23.4811 4.32656 23.4851 4.41205 23.4866 4.61049L23.4886 4.87729L23.4522 4.95386C23.4322 4.99596 23.407 5.03863 23.3961 5.0487C23.3602 5.08198 23.216 5.09502 23.0885 5.07652Z" fill="#FEFEFE"/>
<path d="M20.7338 10.3822C20.7393 10.3648 20.7559 10.3046 20.7706 10.2484C20.7853 10.1923 20.8166 10.1085 20.84 10.0622C20.9374 9.87025 21.0529 9.51486 21.1005 9.2609C21.112 9.19918 21.1262 8.99907 21.1319 8.81622C21.1429 8.4637 21.1274 8.29743 21.0677 8.12857L21.0344 8.03455L21.1084 8.0113C21.1577 7.99581 21.3605 7.98384 21.7189 7.97531C22.2541 7.96256 22.3588 7.9523 22.4434 7.90434C22.5134 7.86465 23.9875 7.85713 24.2278 7.89525C24.418 7.92545 24.5396 7.97737 24.5961 8.0525L24.6327 8.10127L24.5932 8.25695C24.5625 8.37844 24.5539 8.46344 24.5542 8.64387C24.5548 8.94375 24.5956 9.14158 24.7111 9.40387C24.8246 9.66174 24.9066 9.87369 24.9212 9.94689C24.9345 10.0136 24.8714 10.1733 24.8242 10.1924C24.7524 10.2216 24.5516 10.2537 24.4379 10.2543C24.3691 10.2546 24.204 10.2714 24.0712 10.2916C23.8762 10.3213 23.7212 10.3296 23.2662 10.3349C22.4344 10.3446 22.1152 10.3568 21.9157 10.3865C21.7898 10.4052 21.5867 10.4132 21.2302 10.4134C20.7529 10.4138 20.7243 10.4119 20.7338 10.3822Z" fill="#FEFEFE"/>
</svg>
